<?xml version="1.0" encoding="UTF-8" standalone="no"?>
<svg
   xmlns:dc="http://purl.org/dc/elements/1.1/"
   xmlns:cc="http://creativecommons.org/ns#"
   xmlns:rdf="http://www.w3.org/1999/02/22-rdf-syntax-ns#"
   xmlns:svg="http://www.w3.org/2000/svg"
   xmlns="http://www.w3.org/2000/svg"
   xmlns:sodipodi="http://sodipodi.sourceforge.net/DTD/sodipodi-0.dtd"
   xmlns:inkscape="http://www.inkscape.org/namespaces/inkscape"
   id="Layer_1"
   viewBox="0 0 200 300"
   width="1667"
   height="2500"
   version="1.1"
   sodipodi:docname="figma-1.svg"
   inkscape:version="1.0.1 (3bc2e813f5, 2020-09-07)">
  <metadata
     id="metadata18">
    <rdf:RDF>
      <cc:Work
         rdf:about="">
        <dc:format>image/svg+xml</dc:format>
        <dc:type
           rdf:resource="http://purl.org/dc/dcmitype/StillImage" />
      </cc:Work>
    </rdf:RDF>
  </metadata>
  <defs
     id="defs16" />
  <sodipodi:namedview
     pagecolor="#ffffff"
     bordercolor="#666666"
     borderopacity="1"
     objecttolerance="10"
     gridtolerance="10"
     guidetolerance="10"
     inkscape:pageopacity="0"
     inkscape:pageshadow="2"
     inkscape:window-width="1366"
     inkscape:window-height="745"
     id="namedview14"
     showgrid="false"
     inkscape:zoom="2.1355527"
     inkscape:cx="357.71596"
     inkscape:cy="1007.3706"
     inkscape:window-x="-8"
     inkscape:window-y="-8"
     inkscape:window-maximized="1"
     inkscape:current-layer="Layer_1" />
  <style
     id="style2">.st0{fill:#0acf83}.st1{fill:#a259ff}.st2{fill:#f24e1e}.st3{fill:#ff7262}.st4{fill:#1abcfe}</style>
  <title
     id="title4">Figma.logo</title>
  <desc
     id="desc6">Created using Figma</desc>
  <rect
     style="fill:#000000;fill-opacity:1;stroke-width:0.0726463;stroke-linecap:round;paint-order:markers fill stroke"
     id="rect27"
     width="15.42"
     height="3.3599999"
     x="31.131001"
     y="118.88239"
     inkscape:export-xdpi="96"
     inkscape:export-ydpi="96" />
  <g
     id="g49"
     transform="translate(0.0770227)"
     inkscape:export-xdpi="96"
     inkscape:export-ydpi="96">
    <g
       id="g25"
       transform="matrix(0.00894658,0,0,0.00894658,25.692139,118.06142)">
      <g
         id="g34"
         transform="translate(787.63359,129.545)">
        <path
           id="path0_fill"
           class="st0"
           d="m 50,300 c 27.6,0 50,-22.4 50,-50 V 200 H 50 c -27.6,0 -50,22.4 -50,50 0,27.6 22.4,50 50,50 z" />
        <path
           id="path1_fill"
           class="st1"
           d="m 0,150 c 0,-27.6 22.4,-50 50,-50 h 50 V 200 H 50 C 22.4,200 0,177.6 0,150 Z" />
        <path
           id="path1_fill_1_"
           class="st2"
           d="M 0,50 C 0,22.4 22.4,0 50,0 h 50 V 100 H 50 C 22.4,100 0,77.6 0,50 Z" />
        <path
           id="path2_fill"
           class="st3"
           d="m 100,0 h 50 c 27.6,0 50,22.4 50,50 0,27.6 -22.4,50 -50,50 h -50 z" />
        <path
           id="path3_fill"
           class="st4"
           d="m 200,150 c 0,27.6 -22.4,50 -50,50 -27.6,0 -50,-22.4 -50,-50 0,-27.6 22.4,-50 50,-50 27.6,0 50,22.4 50,50 z" />
      </g>
    </g>
    <text
       xml:space="preserve"
       style="font-size:2.50139px;line-height:1.25;font-family:'Arial Rounded MT Bold';-inkscape-font-specification:'Arial Rounded MT Bold, ';stroke-width:0.250139"
       x="35.484703"
       y="121.47049"
       id="text38"><tspan
         sodipodi:role="line"
         id="tspan36"
         x="35.484703"
         y="121.47049"
         style="font-style:normal;font-variant:normal;font-weight:bold;font-stretch:normal;font-size:2.50139px;font-family:sans-serif;-inkscape-font-specification:'sans-serif Bold';fill:#ffffff;stroke-width:0.250139">FIGMA</tspan></text>
  </g>
</svg>
