<?xml version="1.0" encoding="UTF-8" standalone="no"?>
<svg
   xmlns:dc="http://purl.org/dc/elements/1.1/"
   xmlns:cc="http://creativecommons.org/ns#"
   xmlns:rdf="http://www.w3.org/1999/02/22-rdf-syntax-ns#"
   xmlns:svg="http://www.w3.org/2000/svg"
   xmlns="http://www.w3.org/2000/svg"
   xmlns:xlink="http://www.w3.org/1999/xlink"
   xmlns:sodipodi="http://sodipodi.sourceforge.net/DTD/sodipodi-0.dtd"
   xmlns:inkscape="http://www.inkscape.org/namespaces/inkscape"
   height="2500"
   viewBox="-3.24751872 -18.32024393 92.3634993 103.20032818"
   width="1967"
   version="1.1"
   id="svg420"
   sodipodi:docname="firefox-browser-developer-edition.svg"
   inkscape:version="1.0.1 (3bc2e813f5, 2020-09-07)">
  <metadata
     id="metadata426">
    <rdf:RDF>
      <cc:Work
         rdf:about="">
        <dc:format>image/svg+xml</dc:format>
        <dc:type
           rdf:resource="http://purl.org/dc/dcmitype/StillImage" />
      </cc:Work>
    </rdf:RDF>
  </metadata>
  <defs
     id="defs424">
    <path
       id="o-8"
       d="M175.5 337.9c93.1 0 168.6-75.5 168.6-168.7C344.1 76 268.6.5 175.5.5S6.9 76.1 6.9 169.2c0 93.2 75.5 168.7 168.6 168.7z" />
    <path
       id="r-8"
       d="M175.5 337.9c93.1 0 168.6-75.5 168.6-168.7C344.1 76 268.6.5 175.5.5S6.9 76.1 6.9 169.2c0 93.2 75.5 168.7 168.6 168.7z" />
    <linearGradient
       inkscape:collect="always"
       xlink:href="#k"
       id="linearGradient1617"
       gradientUnits="userSpaceOnUse"
       gradientTransform="scale(0.98436701,1.0158813)"
       x1="68.991951"
       y1="11.815484"
       x2="17.021516"
       y2="66.148209" />
  </defs>
  <sodipodi:namedview
     pagecolor="#ffffff"
     bordercolor="#666666"
     borderopacity="1"
     objecttolerance="10"
     gridtolerance="10"
     guidetolerance="10"
     inkscape:pageopacity="0"
     inkscape:pageshadow="2"
     inkscape:window-width="1366"
     inkscape:window-height="745"
     id="namedview422"
     showgrid="false"
     inkscape:zoom="3.0201276"
     inkscape:cx="1019.3095"
     inkscape:cy="1125.7058"
     inkscape:window-x="-8"
     inkscape:window-y="-8"
     inkscape:window-maximized="1"
     inkscape:current-layer="svg420" />
  <radialGradient
     id="a"
     cx="42.067258"
     cy="30.945195"
     r="22.6548"
     gradientTransform="scale(1.0002649,0.99973519)"
     fx="42.067258"
     fy="30.945195"
     gradientUnits="userSpaceOnUse">
    <stop
       offset=".1"
       stop-color="#0df"
       stop-opacity=".4"
       id="stop2" />
    <stop
       offset=".9"
       stop-color="#7542e5"
       stop-opacity=".25"
       id="stop4" />
  </radialGradient>
  <radialGradient
     id="b"
     cx="39.891641"
     cy="41.404161"
     fx="39.801778"
     r="19.256579"
     gradientTransform="scale(1.0002649,0.99973519)"
     fy="41.404161"
     gradientUnits="userSpaceOnUse">
    <stop
       offset=".91"
       stop-color="#7542e5"
       stop-opacity="0"
       id="stop7" />
    <stop
       offset="1"
       stop-color="#0df"
       stop-opacity=".4"
       id="stop9" />
  </radialGradient>
  <radialGradient
     id="c"
     cx="61.200493"
     cy="9.810463"
     gradientTransform="scale(1.1097029,0.9011421)"
     r="89.40317"
     fx="61.200493"
     fy="9.810463"
     gradientUnits="userSpaceOnUse">
    <stop
       offset="0"
       stop-color="#80ebff"
       id="stop12" />
    <stop
       offset=".26"
       stop-color="#0df"
       id="stop14" />
    <stop
       offset=".53"
       stop-color="#0090ed"
       id="stop16" />
    <stop
       offset=".86"
       stop-color="#0060df"
       id="stop18" />
  </radialGradient>
  <radialGradient
     id="d"
     cx="34.469642"
     cy="46.828964"
     fx="34.658925"
     gradientTransform="scale(1.1097029,0.9011421)"
     r="89.40317"
     fy="46.828964"
     gradientUnits="userSpaceOnUse">
    <stop
       offset=".3"
       stop-color="#321c64"
       stop-opacity=".8"
       id="stop21" />
    <stop
       offset=".37"
       stop-color="#212f83"
       stop-opacity=".5"
       id="stop23" />
    <stop
       offset=".48"
       stop-color="#0a47ac"
       stop-opacity=".14"
       id="stop25" />
    <stop
       offset=".53"
       stop-color="#0250bb"
       stop-opacity="0"
       id="stop27" />
  </radialGradient>
  <radialGradient
     id="e"
     cx="61.191901"
     cy="-19.160243"
     gradientTransform="scale(1.0919471,0.91579529)"
     r="139.74019"
     fx="61.191901"
     fy="-19.160243"
     gradientUnits="userSpaceOnUse">
    <stop
       offset="0"
       stop-color="#80ebff"
       id="stop30" />
    <stop
       offset=".47"
       stop-color="#00b3f4"
       id="stop32" />
    <stop
       offset=".84"
       stop-color="#0060df"
       id="stop34" />
    <stop
       offset="1"
       stop-color="#592acb"
       id="stop36" />
  </radialGradient>
  <linearGradient
     id="f"
     x1="84.162507"
     x2="91.017916"
     y1="-3.6041653"
     y2="41.13639"
     gradientTransform="scale(0.68850122,1.4524303)"
     gradientUnits="userSpaceOnUse">
    <stop
       offset="0"
       stop-color="#aaf2ff"
       id="stop39" />
    <stop
       offset=".29"
       stop-color="#0df"
       id="stop41" />
    <stop
       offset=".61"
       stop-color="#0090ed"
       id="stop43" />
    <stop
       offset=".89"
       stop-color="#0250bb"
       id="stop45" />
  </linearGradient>
  <linearGradient
     id="g"
     x1="59.666758"
     x2="65.723448"
     y1="0.0084456605"
     y2="30.04963"
     gradientTransform="scale(0.76778732,1.302444)"
     gradientUnits="userSpaceOnUse">
    <stop
       offset="0"
       stop-color="#aaf2ff"
       id="stop48" />
    <stop
       offset=".29"
       stop-color="#0df"
       id="stop50" />
    <stop
       offset=".74"
       stop-color="#0090ed"
       id="stop52" />
    <stop
       offset="1"
       stop-color="#0250bb"
       id="stop54" />
  </linearGradient>
  <radialGradient
     id="h"
     cx="37.300233"
     cy="5.5633535"
     gradientTransform="scale(0.99878516,1.0012163)"
     r="28.381479"
     fx="37.300233"
     fy="5.5633535"
     gradientUnits="userSpaceOnUse">
    <stop
       offset="0"
       stop-color="#0df"
       id="stop57" />
    <stop
       offset=".82"
       stop-color="#0090ed"
       id="stop59" />
  </radialGradient>
  <radialGradient
     id="i"
     cx="52.950815"
     cy="21.181153"
     gradientTransform="scale(1.0572963,0.94580871)"
     r="85.359636"
     fx="52.950815"
     fy="21.181153"
     gradientUnits="userSpaceOnUse">
    <stop
       offset=".29"
       stop-color="#80ebff"
       id="stop62" />
    <stop
       offset="1"
       stop-color="#00b3f4"
       id="stop64" />
  </radialGradient>
  <radialGradient
     id="j"
     cx="36.138845"
     cy="15.884185"
     gradientTransform="scale(1.0100225,0.99007695)"
     r="71.746958"
     fx="36.138845"
     fy="15.884185"
     gradientUnits="userSpaceOnUse">
    <stop
       offset=".18"
       stop-color="#aaf2ff"
       id="stop67" />
    <stop
       offset=".43"
       stop-color="#0df"
       id="stop69" />
    <stop
       offset=".69"
       stop-color="#0060df"
       id="stop71" />
  </radialGradient>
  <linearGradient
     id="k"
     x1="68.991951"
     x2="17.021516"
     y1="11.815484"
     y2="66.148209"
     gradientTransform="scale(0.98436701,1.0158813)"
     gradientUnits="userSpaceOnUse">
    <stop
       offset=".24"
       stop-color="#80ebff"
       stop-opacity=".5"
       id="stop74" />
    <stop
       offset=".7"
       stop-color="#0df"
       stop-opacity="0"
       id="stop76" />
  </linearGradient>
  <linearGradient
     id="l"
     x1="32.20606"
     x2="25.120728"
     y1="33.089982"
     y2="60.567246"
     gradientTransform="scale(1.0303045,0.97058681)"
     gradientUnits="userSpaceOnUse">
    <stop
       offset="0"
       stop-color="#bff3ff"
       stop-opacity=".9"
       id="stop79" />
    <stop
       offset="1"
       stop-color="#80ebff"
       stop-opacity=".5"
       id="stop81" />
  </linearGradient>
  <linearGradient
     id="m">
    <stop
       offset="0"
       stop-color="#bff3ff"
       id="stop84" />
    <stop
       offset="1"
       stop-color="#0df"
       stop-opacity="0"
       id="stop86" />
  </linearGradient>
  <linearGradient
     id="n"
     x1="95.00948"
     x2="93.769229"
     xlink:href="#m"
     y1="-0.82379484"
     y2="57.468"
     gradientTransform="scale(0.6427176,1.5558933)"
     gradientUnits="userSpaceOnUse" />
  <linearGradient
     id="o"
     x1="56.136809"
     x2="55.329029"
     y1="-0.63725394"
     y2="23.111472"
     gradientTransform="scale(0.81544499,1.2263243)"
     gradientUnits="userSpaceOnUse">
    <stop
       offset="0"
       stop-color="#bff3ff"
       id="stop90" />
    <stop
       offset="1"
       stop-color="#aaf2ff"
       stop-opacity=".5"
       id="stop92" />
  </linearGradient>
  <linearGradient
     id="p"
     x1="58.332547"
     x2="56.715938"
     xlink:href="#m"
     y1="25.308982"
     y2="64.107624"
     gradientTransform="scale(0.89134572,1.1218991)"
     gradientUnits="userSpaceOnUse" />
  <linearGradient
     id="q">
    <stop
       offset="0"
       stop-color="#bff3ff"
       stop-opacity=".8"
       id="stop96" />
    <stop
       offset="1"
       stop-color="#80ebff"
       stop-opacity=".2"
       id="stop98" />
  </linearGradient>
  <linearGradient
     id="r"
     x1="23.729013"
     x2="25.866492"
     xlink:href="#q"
     y1="33.093102"
     y2="66.491219"
     gradientTransform="scale(1.0625225,0.94115655)"
     gradientUnits="userSpaceOnUse" />
  <linearGradient
     id="s"
     x1="29.194854"
     x2="20.563929"
     xlink:href="#q"
     y1="12.974803"
     y2="26.988456"
     gradientTransform="scale(0.97978943,1.0206275)"
     gradientUnits="userSpaceOnUse" />
  <linearGradient
     id="t"
     x1="18.502363"
     x2="16.874854"
     y1="29.405515"
     y2="74.324791"
     gradientTransform="scale(0.79999508,1.2500077)"
     gradientUnits="userSpaceOnUse">
    <stop
       offset="0"
       stop-color="#0df"
       stop-opacity=".4"
       id="stop103" />
    <stop
       offset="1"
       stop-color="#0df"
       stop-opacity="0"
       id="stop105" />
  </linearGradient>
  <linearGradient
     id="u"
     x1="25.577994"
     x2="25.577994"
     xlink:href="#m"
     y1="4.5553229"
     y2="57.367839"
     gradientTransform="scale(0.7947955,1.2581853)"
     gradientUnits="userSpaceOnUse" />
  <linearGradient
     id="v"
     x1="68.298669"
     x2="65.108376"
     y1="12.77847"
     y2="89.877264"
     gradientTransform="scale(0.84431494,1.1843922)"
     gradientUnits="userSpaceOnUse">
    <stop
       offset="0"
       stop-color="#bff3ff"
       stop-opacity=".8"
       id="stop109" />
    <stop
       offset="1"
       stop-color="#0df"
       stop-opacity="0"
       id="stop111" />
  </linearGradient>
  <rect
     style="fill:#ff9c00;fill-opacity:1;stroke-width:0.05414;stroke-linecap:round;paint-order:markers fill stroke"
     id="rect1460"
     width="6.50348"
     height="1.3147829"
     x="40.72184"
     y="24.523993" />
  <g
     id="g1794"
     transform="translate(-0.16081752)">
    <g
       id="g1458"
       transform="matrix(0.10446365,0,0,0.10446365,50.636314,19.885184)">
      <g
         id="g1615"
         transform="matrix(0.12305579,0,0,0.12305579,-89.048233,45.776493)">
        <path
           d="m 22.361,46.629 2.442,6.77 3.669,4.951 8.614,1.644 4.121,0.35 7.036,-1.758 3.031,-2.905 z"
           fill="#09204d"
           id="path114" />
        <path
           d="m 58.818,36.642 -0.863,-2.862 -2.466,-4.654 -2.821,-2.974 -2.995,-2.139 -2.6,-1.02 -3.12,-1.11 -5.137,-0.327 -3.24,0.584 -2.643,0.813 -4.69,2.745 -2.931,3.271 -2.703,4.39 -1.063,3.736 -0.199,5.669 1.014,3.865 2.236,4.4 1.576,2.125 2.181,2 2.723,1.842 3.358,1.461 5.619,0.659 2.935,0.082 4.342,-1.223 3.882,-2.131 2.497,-2.131 1.937,-2.31 2.738,-5.36 0.604,-3.667 z"
           fill="#09204d"
           id="path116" />
        <path
           d="m 38.91,24.132 -2.301,2.282 3.753,1.522 2.792,-3.463 z"
           fill="#0e56d7"
           id="path118" />
        <path
           d="m 40.362,27.936 7.266,-0.221 -4.474,-3.242 z"
           fill="#1053d1"
           id="path120" />
        <path
           d="m 47.088,24.449 -3.934,0.024 4.474,3.242 4.137,-0.27 z"
           fill="#0b4fbf"
           id="path122" />
        <path
           d="m 51.765,27.445 -2.352,-3.243 3.255,1.95 z"
           fill="#0b48b0"
           id="path124" />
        <path
           d="m 54.879,29.431 -3.114,-1.986 0.903,-1.293 z"
           fill="#0c45a7"
           id="path126" />
        <path
           d="m 51.765,27.445 -0.521,2.222 2.848,1.139 z"
           fill="#0f46af"
           id="path128" />
        <path
           d="m 51.765,27.445 3.114,1.986 -0.787,1.375 z"
           fill="#0c47ad"
           id="path130" />
        <path
           d="m 47.628,27.715 4.137,-0.27 -0.521,2.222 z"
           fill="#0e4fc3"
           id="path132" />
        <path
           d="m 47.628,27.715 -3.269,2.96 4.207,2.06 z"
           fill="#174dca"
           id="path134" />
        <path
           d="m 40.362,27.936 7.266,-0.221 -3.269,2.96 z"
           fill="#1650d4"
           id="path136" />
        <path
           d="m 51.244,29.667 1.978,3.838 0.87,-2.699 z"
           fill="#1246b2"
           id="path138" />
        <path
           d="m 53.222,33.505 0.87,-2.699 2.073,4.93 z"
           fill="#133ea1"
           id="path140" />
        <path
           d="m 54.092,30.806 3.159,2.314 -1.086,2.616 z"
           fill="#103d98"
           id="path142" />
        <path
           d="m 54.879,29.431 0.61,-0.305 1.762,3.994 z"
           fill="#0b3785"
           id="path144" />
        <path
           d="m 57.251,33.12 0.704,0.66 -2.466,-4.654 z"
           fill="#0b3685"
           id="path146" />
        <path
           d="m 57.251,33.12 -2.372,-3.689 -0.787,1.375 z m -4.583,-6.968 2.211,3.279 0.61,-0.3 z"
           fill="#0c3b91"
           id="path148" />
        <path
           d="m 58.659,38.878 -0.704,-5.098 0.863,2.862 -0.17,2.236 z"
           fill="#0b3279"
           id="path150" />
        <path
           d="m 57.251,33.12 1.408,5.758 -0.704,-5.098 z"
           fill="#0f388d"
           id="path152" />
        <path
           d="m 56.165,35.736 2.494,3.142 -1.408,-5.758 z"
           fill="#0d3481"
           id="path154" />
        <path
           d="m 58.648,38.878 0.17,-2.236 0.171,5.734 -0.33,-3.498 z"
           fill="#0b2e71"
           id="path156" />
        <path
           d="m 58.241,43.41 0.748,-1.034 -0.33,-3.498 z"
           fill="#0e2f77"
           id="path158" />
        <path
           d="m 58.385,46.043 -0.598,0.288 1.202,-3.955 z"
           fill="#0e2969"
           id="path160" />
        <path
           d="m 57.787,46.331 1.202,-3.955 -0.748,1.034 z"
           fill="#0c2a69"
           id="path162" />
        <path
           d="m 58.241,43.41 0.418,-4.532 -1.281,1.511 z"
           fill="#123180"
           id="path164" />
        <path
           d="M 57.787,46.331 58.241,43.41 55.77,47.563 Z"
           fill="#112b70"
           id="path166" />
        <path
           d="m 56.165,35.736 2.494,3.142 -1.281,1.511 z"
           fill="#12378c"
           id="path168" />
        <path
           d="m 58.241,43.41 -0.863,-3.021 -1.303,3.72 z"
           fill="#122e7b"
           id="path170" />
        <path
           d="m 55.647,51.403 2.14,-5.072 -2.002,3.697 z"
           fill="#11296c"
           id="path172" />
        <path
           d="m 55.785,50.028 2.002,-3.697 -2.017,1.232 z"
           fill="#142a72"
           id="path174" />
        <path
           d="m 57.787,46.331 -2.14,5.069 2.738,-5.36 z m -4.076,7.382 1.936,-2.31 0.138,-1.375 z m -2.5,2.131 2.5,-2.131 -2.64,1.214 z"
           fill="#112768"
           id="path176" />
        <path
           d="m 36.637,57.328 -2.523,0.618 0.077,-1.762 z"
           fill="#1c226a"
           id="path178" />
        <path
           d="m 22.609,33.359 0.696,-0.258 -1.759,3.994 z"
           fill="#182b7a"
           id="path180" />
        <path
           d="m 21.546,37.095 1.332,-0.248 0.427,-3.746 z"
           fill="#1f308d"
           id="path182" />
        <path
           d="m 21.626,41.892 -0.08,-4.797 1.332,-0.248 z"
           fill="#1e2b7f"
           id="path184" />
        <path
           d="m 51.244,29.667 -2.678,3.068 4.656,0.77 z M 27.876,26.521 31.294,24.182 28.243,25.7 Z"
           fill="#1346b5"
           id="path186" />
        <path
           d="m 28.243,25.698 4.69,-2.745 -1.639,1.229 z"
           fill="#1244ac"
           id="path188" />
        <path
           d="m 31.294,24.182 4.282,-2.042 -2.643,0.813 z"
           fill="#0e4ab6"
           id="path190" />
        <path
           d="m 47.628,27.715 0.938,5.02 2.678,-3.068 z M 33.9,23.944 l 3.99,-1.6 -2.316,-0.208 z"
           fill="#0e4bba"
           id="path192" />
        <path
           d="m 38.816,21.556 -3.24,0.584 2.316,0.208 z"
           fill="#0a4ebc"
           id="path194" />
        <path
           d="m 41.88,22.309 -3.988,0.039 0.924,-0.792"
           fill="#0c54cc"
           id="path196" />
        <path
           d="m 49.413,24.2 -2.325,0.247 4.677,3 z m -7.533,-1.891 5.193,0.684 -3.12,-1.11 z"
           fill="#0b4bb4"
           id="path198" />
        <path
           d="m 49.413,24.202 -2.34,-1.209 2.6,1.02 z"
           fill="#0c3889"
           id="path200" />
        <path
           d="m 22.361,46.629 1.539,1.263 -2.27,-6 z m 21.189,11.933 1.35,-3.178 -4.919,1.321 z m 1.35,-3.178 4.112,1.141 0.249,-3.18 z"
           fill="#202575"
           id="path202" />
        <path
           d="m 51.071,54.927 -1.81,-1.582 4.373,-2.906 z"
           fill="#1b2773"
           id="path204" />
        <path
           d="m 53.634,50.439 -2.563,4.488 2.64,-1.214 2.074,-3.685 z"
           fill="#15276d"
           id="path206" />
        <path
           d="m 49.673,24.013 -0.26,0.189 3.255,1.95 z m -2.585,0.436 2.325,-0.247 -2.34,-1.209 z"
           fill="#0c409d"
           id="path208" />
        <path
           d="m 38.816,21.556 3.064,0.753 2.073,-0.426 z m 8.257,1.437 -5.193,-0.684 5.208,2.14 z"
           fill="#0b4cb7"
           id="path210" />
        <path
           d="m 41.88,22.309 1.274,2.164 3.934,-0.024 z"
           fill="#0b55ce"
           id="path212" />
        <path
           d="m 41.88,22.309 1.274,2.164 -4.244,-0.341 z"
           fill="#0a52c5"
           id="path214" />
        <path
           d="m 37.892,22.348 1.018,1.784 2.97,-1.823 z"
           fill="#0951c4"
           id="path216" />
        <path
           d="m 33.902,23.944 3.99,-1.596 1.018,1.784 z"
           fill="#0b50c4"
           id="path218" />
        <path
           d="m 31.294,24.182 2.608,-0.238 1.674,-1.8 z m 2.608,-0.238 2.707,2.47 2.3,-2.282 z"
           fill="#0f4dbf"
           id="path220" />
        <path
           d="m 33.902,23.944 -4.407,4.133 1.799,-3.895 z"
           fill="#1546b6"
           id="path222" />
        <path
           d="m 29.495,28.077 2.812,0.467 1.595,-4.6 z"
           fill="#1549bd"
           id="path224" />
        <path
           d="m 32.307,28.544 1.595,-4.6 2.707,2.47 z"
           fill="#144bc3"
           id="path226" />
        <path
           d="m 25.312,28.969 0.171,1.662 2.393,-4.11 z"
           fill="#173794"
           id="path228" />
        <path
           d="m 23.305,33.101 2.007,-4.132 0.171,1.662 z"
           fill="#192f84"
           id="path230" />
        <path
           d="m 25.483,30.631 2.393,-4.11 1.619,1.556 z"
           fill="#1a389b"
           id="path232" />
        <path
           d="m 25.338,34.195 0.145,-3.564 -2.178,2.47 z"
           fill="#1d3089"
           id="path234" />
        <path
           d="m 25.338,34.195 0.145,-3.564 2.827,2.295 z"
           fill="#1e389f"
           id="path236" />
        <path
           d="m 28.31,32.926 1.185,-4.849 -4.012,2.554 z"
           fill="#1c40af"
           id="path238" />
        <path
           d="m 28.31,32.926 1.185,-4.849 2.812,0.467 z"
           fill="#1e41b7"
           id="path240" />
        <path
           d="m 22.878,36.847 0.427,-3.746 2.033,1.094 z"
           fill="#192c7d"
           id="path242" />
        <path
           d="m 43.55,58.562 3.781,-0.587 1.681,-1.45 z m -22.2,-15.8 0.279,-0.872 -0.08,-4.8 z m 1.531,-5.917 -1.252,5.045 2.27,6 -1.111,-6.95 z"
           fill="#162467"
           id="path244" />
        <path
           d="m 23.896,47.892 1.873,0.263 -1.312,-3.062 z"
           fill="#1a236a"
           id="path246" />
        <path
           d="m 51.071,54.927 -2.059,1.6 -1.681,1.45 3.882,-2.131 z m -11.017,4.189 2.935,0.082 4.342,-1.223 -3.781,0.587 z m -14.41,-7.742 1.968,0.378 -1.843,-3.6 z"
           fill="#132668"
           id="path248" />
        <path
           d="m 34.191,56.184 -3.333,-2.566 -1.385,1.333 4.641,2.995 z m -11.83,-9.555 2.236,4.4 -0.7,-3.137 z m -1.014,-3.865 1.014,3.865 -0.735,-4.737 z m 18.634,13.941 -5.79,-0.521 2.446,1.144 -2.523,0.618 -3.037,-0.946 3.358,1.461 5.619,0.659 3.5,-0.554 z m -14.212,-8.55 -1.869,-0.263 1.748,3.482 z m -2.981,-7.215 1.112,6.952 0.561,-2.8 z m 4.824,10.812 -1.968,-0.378 -1.044,-0.345 1.576,2.125 2.181,2 2.72,1.846 -1.6,-2.045 z"
           fill="#1b2268"
           id="path250" />
        <path
           d="m 22.878,36.847 2.643,4.089 -0.183,-6.741 z"
           fill="#212a81"
           id="path252" />
        <path
           d="m 22.788,40.94 1.669,4.153 1.064,-4.157 z"
           fill="#21267a"
           id="path254" />
        <path
           d="m 24.457,45.093 1.064,-4.157 1.321,3.285 z"
           fill="#262781"
           id="path256" />
        <path
           d="m 25.769,48.155 5.068,3.141 -3.995,-7.075 z"
           fill="#272379"
           id="path258" />
        <path
           d="m 24.6,51.029 1.047,0.345 -1.747,-3.482 z m 11.194,1.807 -1.6,3.348 5.79,0.521 z m -10.025,-4.681 1.843,3.6 1.861,3.2 1.385,-1.333 -0.021,-2.322 z"
           fill="#1e226d"
           id="path260" />
        <path
           d="m 49.261,53.345 -0.249,3.18 2.059,-1.6 z M 40.4,52.888 39.979,56.705 44.9,55.384 44.725,51.093 Z"
           fill="#222475"
           id="path262" />
        <path
           d="m 22.788,40.94 h 2.733 l -2.643,-4.089 z m 21.937,10.153 0.175,4.291 4.361,-2.039 z"
           fill="#23277d"
           id="path264" />
        <path
           d="m 44.725,51.093 2.807,-2.542 1.729,4.794 z"
           fill="#1e2776"
           id="path266" />
        <path
           d="m 49.261,53.345 2.122,-6.427 -3.851,1.633 z"
           fill="#222b86"
           id="path268" />
        <path
           d="m 53.634,50.439 -4.373,2.906 2.122,-6.427 z"
           fill="#192974"
           id="path270" />
        <path
           d="m 55.77,47.563 -4.387,-0.645 2.251,3.521 2.151,-0.411 z"
           fill="#172a75"
           id="path272" />
        <path
           d="m 56.075,44.109 -4.692,2.809 4.387,0.645 2.471,-4.154 z"
           fill="#172d7d"
           id="path274" />
        <path
           d="m 23.305,33.1 2.007,-4.132 -2.7,4.39 z m 31.02,5.115 1.75,5.893 1.3,-3.72 z"
           fill="#18338a"
           id="path276" />
        <path
           d="m 57.378,40.389 -1.213,-4.653 -1.84,2.48 z"
           fill="#153791"
           id="path278" />
        <path
           d="m 51.383,46.918 4.692,-2.809 -4.547,-2.024 z"
           fill="#1b318b"
           id="path280" />
        <path
           d="m 51.383,46.918 -4.252,-4.296 0.401,5.929 z"
           fill="#242d8d"
           id="path282" />
        <path
           d="m 44.725,51.093 -3.265,-2.891 6.072,0.349 z"
           fill="#2a2b8f"
           id="path284" />
        <path
           d="m 25.769,48.155 1.073,-3.934 -2.385,0.872 z M 41.46,48.2 40.4,52.888 44.723,51.093 Z"
           fill="#27267f"
           id="path286" />
        <path
           d="m 34.702,49.161 -3.142,-1.598 -0.723,3.733 4.954,1.54 4.611,0.052 z"
           fill="#2d2381"
           id="path288" />
        <path
           d="m 40.402,52.888 1.058,-4.686 -6.758,0.959 z"
           fill="#2f2485"
           id="path290" />
        <path
           d="m 25.521,40.936 1.355,-4.328 -1.538,-2.413 z"
           fill="#233196"
           id="path292" />
        <path
           d="m 28.31,32.926 5.95,-1.734 -3.143,6.421 z"
           fill="#293cb7"
           id="path294" />
        <path
           d="m 51.383,46.918 -4.252,-4.296 4.397,-0.537 z"
           fill="#25339c"
           id="path296" />
        <path
           d="m 56.075,44.109 -1.75,-5.893 -2.797,3.869 z"
           fill="#19348f"
           id="path298" />
        <path
           d="m 47.532,48.551 -4.863,-4.702 4.462,-1.227 z"
           fill="#2a309a"
           id="path300" />
        <path
           d="m 41.46,48.202 6.072,0.349 -4.863,-4.702 z"
           fill="#302b96"
           id="path302" />
        <path
           d="m 41.46,48.202 -3.325,-2.708 4.534,-1.645 z"
           fill="#3630a7"
           id="path304" />
        <path
           d="m 27.876,26.521 0.367,-0.823 -2.931,3.271 z m 25.346,6.984 1.1,4.711 1.84,-2.48 z"
           fill="#173da2"
           id="path306" />
        <path
           d="m 28.31,32.926 2.807,4.687 -4.241,-1.005 z"
           fill="#2a36a8"
           id="path308" />
        <path
           d="m 26.876,36.608 4.241,1.005 -2.868,4.517 z"
           fill="#312e9f"
           id="path310" />
        <path
           d="m 34.26,31.192 2.349,-4.778 -4.302,2.13 z"
           fill="#184dcd"
           id="path312" />
        <path
           d="m 25.521,40.936 2.728,1.194 -1.407,2.091 z"
           fill="#272986"
           id="path314" />
        <path
           d="m 28.249,42.13 -1.407,2.091 3.995,7.075 0.723,-3.733 z"
           fill="#2c2584"
           id="path316" />
        <path
           d="m 31.56,47.563 0.442,-6.573 -3.753,1.14 z"
           fill="#32268b"
           id="path318" />
        <path
           d="M 31.56,47.563 38.135,45.494 32.002,40.99 Z"
           fill="#372999"
           id="path320" />
        <path
           d="M 38.135,45.494 37.494,40.412 32.002,40.99 Z"
           fill="#392da5"
           id="path322" />
        <path
           d="m 37.494,40.412 4.638,-1.734 0.537,5.171 z"
           fill="#3338bc"
           id="path324" />
        <path
           d="M 34.702,49.161 41.46,48.202 38.135,45.494 Z"
           fill="#362896"
           id="path326" />
        <path
           d="M 34.702,49.161 31.56,47.563 38.135,45.494 Z"
           fill="#35268f"
           id="path328" />
        <path
           d="m 34.26,31.192 4.027,0.426 -1.678,-5.204 z"
           fill="#2648d3"
           id="path330" />
        <path
           d="m 40.362,27.936 -3.753,-1.522 1.678,5.204 z"
           fill="#1057dc"
           id="path332" />
        <path
           d="m 40.362,27.936 3.997,2.739 -6.072,0.943 z"
           fill="#1653da"
           id="path334" />
        <path
           d="m 38.287,31.618 5.956,3.159 -2.111,3.901 z"
           fill="#2b46d5"
           id="path336" />
        <path
           d="m 44.243,34.777 0.116,-4.102 -6.072,0.943 z"
           fill="#244ad7"
           id="path338" />
        <path
           d="m 44.243,34.777 0.116,-4.102 4.207,2.06 z"
           fill="#2547cf"
           id="path340" />
        <path
           d="m 38.287,31.618 3.845,7.06 -6.743,-3.378 z"
           fill="#333cc5"
           id="path342" />
        <path
           d="M 37.494,40.412 42.132,38.678 35.389,35.3 Z"
           fill="#3833b6"
           id="path344" />
        <path
           d="m 42.132,38.678 5.947,-1.087 -3.836,-2.814 z"
           fill="#2a41c6"
           id="path346" />
        <path
           d="m 48.566,32.735 -0.487,4.856 -3.836,-2.814 z"
           fill="#2045c1"
           id="path348" />
        <path
           d="m 48.566,32.735 2.807,3.813 -3.294,1.043 z"
           fill="#1b43b7"
           id="path350" />
        <path
           d="m 53.222,33.505 -4.656,-0.77 2.807,3.813 z"
           fill="#1742af"
           id="path352" />
        <path
           d="m 29.5,28.077 1.8,-3.9 -3.418,2.339 z m 23.727,5.428 -1.849,3.043 2.952,1.668 z"
           fill="#1740a9"
           id="path354" />
        <path
           d="m 51.528,42.085 2.797,-3.869 -2.952,-1.668 z"
           fill="#1b3ca4"
           id="path356" />
        <path
           d="m 51.528,42.085 -0.155,-5.537 -3.294,1.043 z"
           fill="#1f3dad"
           id="path358" />
        <path
           d="m 28.31,32.926 5.95,-1.734 -1.953,-2.648 z m 13.822,5.752 5,3.944 0.948,-5.031 z"
           fill="#2543c3"
           id="path360" />
        <path
           d="m 42.669,43.849 4.462,-1.227 -4.999,-3.944 z"
           fill="#2e37b2"
           id="path362" />
        <path
           d="m 34.26,31.192 1.129,4.108 2.898,-3.682 z"
           fill="#2d40c7"
           id="path364" />
        <path
           d="M 34.26,31.192 31.117,37.613 35.389,35.3 Z"
           fill="#3537b8"
           id="path366" />
        <path
           d="m 35.389,35.3 -3.387,5.69 5.492,-0.578 z"
           fill="#3931b0"
           id="path368" />
        <path
           d="m 37.494,40.412 0.641,5.082 4.534,-1.645 z M 32,40.99 35.387,35.3 31.115,37.613 Z"
           fill="#3735b8"
           id="path370" />
        <path
           d="m 28.249,42.13 2.868,-4.517 0.885,3.377 z"
           fill="#342892"
           id="path372" />
        <path
           d="m 31.077,57 3.037,0.95 -4.641,-2.995 z m -0.219,-3.378 3.333,2.566 1.6,-3.348 -4.954,-1.54 z m 9.123,3.087 0.421,-3.817 -4.611,-0.052 z m 4.919,-1.325 -1.35,3.178 5.462,-2.037 z"
           fill="#232372"
           id="path374" />
        <path
           d="m 25.521,40.936 1.355,-4.328 1.373,5.522 z"
           fill="#2a2f96"
           id="path376" />
        <path
           d="M 26.876,36.608 28.31,32.926 25.339,34.2 Z m 21.2,0.983 -0.948,5.031 4.4,-0.537 z"
           fill="#2636a5"
           id="path378" />
        <path
           d="M 59.074,42.381 V 42.373 L 58.9,36.639 v -0.02 L 58.038,33.758 V 33.752 L 55.572,29.098 52.73,26.094 H 52.724 L 49.73,23.957 h -0.012 l -2.6,-1.02 H 47.1 l -3.12,-1.11 H 43.959 L 38.822,21.5 H 38.8 l -3.24,0.585 h -0.012 l -2.641,0.812 H 32.89 l -4.69,2.728 -2.93,3.269 -2.7,4.389 v 0.011 l -1.064,3.736 v 0.014 l -0.2,5.669 v 0.027 l 1.013,3.862 v 0.013 l 2.235,4.4 v 0.007 L 26.1,53.2 v 0.005 l 2.18,2 h 0.006 l 2.723,1.842 h 0.006 l 3.358,1.46 h 0.021 l 5.619,0.659 h 0.008 l 2.934,0.082 h 0.023 l 4.342,-1.224 h 0.015 l 3.88,-2.13 0.007,-0.005 h 0.005 l 2.5,-2.13 1.936,-2.311 0.007,-0.01 2.738,-5.36 v -0.021 l 0.6,-3.665 v -0.009 z m -30.667,12.706 -0.565,-0.518 1.27,0.995 z m 8.242,2.153 -1.985,-0.928 4.7,0.423 z m 0.723,-16.9 -5.21,0.548 3.213,-5.4 z m -1.818,-4.863 6.366,3.189 -4.379,1.634 z m 1.866,5.028 0.606,4.8 -5.8,-4.257 z m 0.53,4.958 -6.3,1.982 0.423,-6.3 z m -0.35,-4.878 4.881,3.241 -4.276,1.552 z m 0.078,-0.152 4.38,-1.638 0.507,4.884 z m 6.729,-5.641 4.059,-1.916 -0.458,4.559 z m 3.462,2.751 -5.58,1.02 1.982,-3.663 z M 42.13,38.5 38.5,31.825 l 5.631,2.986 z m -0.2,-0.019 -6.408,-3.21 2.754,-3.5 z m -9.895,2.292 -0.817,-3.118 3.943,-2.134 z m -0.54,6.518 -3.116,-5.111 3.53,-1.073 z m 6.359,-1.619 -3.168,3.384 -2.9,-1.474 z m 4.691,-1.687 -1.13,4.07 -3.115,-2.532 z m -0.306,-5.116 4.71,3.715 -4.2,1.157 z m 0.094,-0.142 5.641,-1.03 -0.9,4.771 z m 5.845,-1.255 0.452,-4.509 2.606,3.54 z m 3.115,-0.81 0.144,5.163 -3.216,-4.189 z m -6.959,-2.021 0.108,-3.832 3.931,1.925 z m -0.17,0 -5.61,-2.976 5.719,-0.888 z m -8.736,0.477 -1.051,-3.826 3.751,0.4 z m -0.137,0.143 -3.981,2.151 2.928,-5.981 z m -3.391,5.672 -3.455,1.05 2.641,-4.161 z m -0.625,6.323 -4.316,-3.056 1.287,-1.911 z m 0.348,0.434 2.9,1.474 -3.566,1.97 z m 6.521,-2.08 3.114,2.536 -6.328,0.9 z m 4.57,-1.6 4.6,4.444 -5.739,-0.329 z m 0.122,-0.118 4.218,-1.16 0.379,5.606 z m 5.292,-6.1 3.243,4.225 -4.134,0.5 z m 3.335,-1.1 2.737,1.551 -2.6,3.589 z m 0.029,-0.178 1.7,-2.791 1.008,4.324 z m -0.125,-0.122 -2.608,-3.542 4.327,0.715 z m -6.857,-5.742 3.063,-2.773 0.879,4.705 z m -6.062,0.854 1.944,-3.449 3.744,2.566 z m -4.058,-0.384 2.2,-4.48 1.574,4.88 z m -3.28,6.315 -2.67,-4.458 5.659,-1.65 z m -2.826,4.483 -1.292,-5.195 3.99,0.945 z m -1.423,2.122 -1.184,-2.94 2.445,1.07 z m 4.605,3.56 -0.666,3.453 -3.7,-6.544 z m 3.185,1.685 1.013,3.422 -4.612,-1.434 z m 6.7,-0.983 -1.005,4.448 -5.409,-3.538 z m 5.974,0.321 -2.6,2.355 L 41.7,48.3 Z m -0.094,-5.781 4,4.046 -3.627,1.538 z m 0.082,-0.158 4.127,-0.5 -0.14,4.534 z m 6.98,-4.279 1.648,5.551 -4.284,-1.906 z m -0.935,-4.692 2.689,2.039 -1.681,2.266 z m -4.628,-1.037 2.5,-2.859 1.843,3.576 z m -0.113,-0.129 -0.873,-4.673 3.366,1.817 z m -4.265,-1.98 -3.728,-2.554 6.776,-0.206 z m -6.043,0.84 -1.563,-4.846 3.495,1.417 z M 34.245,31.029 32.436,28.575 36.423,26.6 Z m -0.125,0.116 -5.544,1.616 3.724,-4.083 z m -3.179,6.339 -3.95,-0.936 1.336,-3.429 z m -2.816,4.5 -2.5,-1.095 1.243,-3.967 z m -1.394,2.187 -2.151,0.787 0.959,-3.75 z m 3.869,6.878 -4.732,-2.933 1,-3.674 z m 4.819,1.76 -4.477,0.71 -0.019,-2.108 z m -0.57,-3.451 5.264,3.442 -4.259,-0.048 z m 6.663,-1 3.055,2.706 -4.046,1.68 z m 5.988,0.342 1.615,4.476 -4.236,-2.1 z m 0.144,-0.1 3.6,-1.528 -1.986,6.015 z m 3.97,-6.384 4.283,1.906 -4.419,2.646 z m 2.867,-3.786 2.8,1.993 -1.2,3.413 z m -0.031,-0.231 1.683,-2.268 1.109,4.256 z m -1.124,-4.724 0.774,-2.425 1.861,4.428 z m -0.117,-0.189 -1.786,-3.456 2.564,1.025 z m -5.277,-5.5 3.729,-0.244 -0.47,2 z m -7.383,0.065 2.625,-3.257 4.208,3.049 z m -0.155,-0.078 -1.352,-3.541 3.95,0.318 z m -0.176,0.016 -3.453,-1.4 2.117,-2.1 z m -7.758,0.593 1.485,-4.284 2.521,2.3 z m -3.983,4.247 1.087,-4.451 2.581,0.429 z m -1.614,3.8 -1.394,-2.189 2.694,-1.15 z m -0.074,0.2 -1.192,3.8 -0.16,-5.926 z m -1.373,4.4 -0.972,3.8 -1.525,-3.8 z m -2.536,-0.166 0.081,-3.729 2.409,3.726 z m 3.842,3.5 -0.971,3.537 -1.18,-2.757 z m 3.876,6.888 -2.933,0.415 -1.676,-3.272 z m 0.16,0.148 0.019,2.078 -2.9,-1.669 z m 4.891,1.552 -1.489,3.102 -3.094,-2.382 z m 0.174,0.031 3.918,3.618 -5.421,-0.488 z m 0.192,-0.053 4.3,0.049 -0.392,3.557 z m 8.635,-1.7 0.164,4.018 L 40.6,52.9 Z m 0.171,0.015 4.25,2.11 -4.086,1.91 z m 6.592,-4.118 2.11,3.3 -4.1,2.724 z m 0.147,-0.086 4.062,0.6 -1.983,2.65 z m 0.075,-0.16 4.346,-2.6 -0.283,3.2 z m 5.74,-6.2 0.767,2.685 -1.925,0.622 z m -1.026,-4.58 2.2,2.772 -1.13,1.334 z m -2.06,-5.049 2.859,2.094 -0.983,2.367 z m -2.946,-1.439 0.461,-1.965 2.058,2.972 z m -3.643,-1.986 -0.5,-3 4.3,2.754 z m -0.189,-0.1 -4.1,-2.969 3.6,-0.023 z m -8.335,-3.458 2.675,-1.642 1.149,1.95 z m -2.569,2.232 -2.477,-2.26 4.581,0.172 z m -4.357,2.149 -2.572,-0.428 4.031,-3.78 z m -3.99,4.327 -2.632,-2.137 3.735,-2.378 z m -0.112,0.128 -2.719,1.16 0.132,-3.261 z m -2.72,7.732 -2.443,-3.779 2.274,-2.452 z m -1.059,4.464 -0.463,2.312 -0.915,-5.741 z m 0.118,0.276 1.145,2.673 L 24,47.821 Z m 2.97,6.259 -1.726,-0.335 0.11,-2.822 z m 3.261,2 -1.226,1.179 -1.647,-2.831 z M 30.864,53.729 33.809,56 29.64,54.91 Z m 9.608,-0.706 4.2,2.332 -4.6,1.235 z m 8.693,0.459 -0.23,2.933 -3.791,-1.053 z M 53.383,50.707 51.049,54.8 49.4,53.354 Z m 2.3,-2.89 0.012,2.14 -1.867,0.357 z m 0.468,-3.645 1.9,-0.614 -2.164,3.642 z m 1.317,-3.764 1.078,-1.271 -0.346,3.813 z m -1.209,-4.686 0.968,-2.331 1.254,5.129 z m -2.059,-4.94 0.68,-1.187 2.049,3.186 z m -0.118,-0.135 -2.012,-2.9 2.692,1.716 z m -6.749,-6.139 2.036,-0.217 2.06,2.841 z m -4.135,-0.12 -1.121,-1.905 4.584,1.884 z m -4.262,-0.374 -0.9,-1.582 3.538,-0.036 z m -0.18,0.027 -4.456,-0.167 3.551,-1.419 z m -9,3.676 1.6,-3.455 2.314,-0.211 z m -0.287,0.216 -1.458,-1.4 3.078,-2.106 z m -0.109,0.13 -3.627,2.309 2.167,-3.715 z m -4.1,5.993 -1.82,-0.979 1.95,-2.211 z m -0.057,0.161 -2.212,2.383 0.384,-3.365 z M 22.7,40.9 l -0.935,0.764 1.007,-4.055 z m 0.023,0.2 0.954,5.986 -1.955,-5.166 z m 2.954,7.129 -0.109,2.813 L 24.044,48 Z m 1.877,3.6 1.556,2.671 -3.194,-2.984 z m 6.546,4.42 -0.067,1.545 -4.072,-2.627 z m 0.167,0.066 2.114,0.988 -2.18,0.533 z m 5.629,0.492 0.066,2.167 -3.071,-1.607 z m 4.855,-1.3 -1.246,2.933 -3.294,-1.713 z m 0.2,-0.026 3.789,1.052 -5.032,1.877 z m 4.384,-1.965 1.605,1.4 -1.829,1.424 z m 4.356,-3.005 1.85,-0.354 -4.056,4.216 z m 2.179,-0.818 -0.013,-2.087 1.707,-1.043 z m 0.15,-2.385 2.07,-3.478 -0.381,2.449 z m 2.642,-7.52 0.242,2.56 -0.548,0.757 z m -1.262,-6.411 0.473,0.444 0.474,3.43 z m -2.4,-3.912 0.445,-0.224 1.288,2.919 z m -3.117,-2.044 0.782,-1.119 1.914,2.839 z m -0.122,-0.122 -2.038,-2.812 2.822,1.691 z m -4.591,-2.944 -0.013,-1.222 1.964,1.014 z M 47,24.322 l -4.489,-1.844 4.476,0.589 z m -8.879,-2.061 0.715,-0.613 2.369,0.583 z m -3.9,1.464 1.389,-1.5 1.922,0.173 z m -0.359,0.138 -2.1,0.191 3.455,-1.646 z m -5.786,2.418 0.232,-0.521 1.931,-0.959 z M 25.541,30.363 25.4,29 27.5,27 Z m -0.146,0.24 -1.742,1.975 1.605,-3.3 z m -2.595,6.172 -1.112,0.207 1.469,-3.335 z m -0.037,0.18 -1.063,4.285 -0.068,-4.075 z m 0.937,10.669 -1.264,-1.04 -0.606,-3.9 z m 1.772,3.6 -0.807,-0.265 -0.54,-2.419 z m 3.451,3.328 -2.678,-1.452 -0.431,-1.448 z m 0.49,0.46 1.161,1.48 -3.55,-2.781 z m 0.434,0.279 3.693,2.383 -2.417,-0.756 z m 6.775,2.122 2.87,1.5 -4.989,-0.983 z m 3.445,-0.571 3.212,1.671 -3.147,0.5 z m 8.528,-0.078 -1.3,1.126 -2.935,0.455 z m 2.41,-1.686 0.109,0.7 -1.686,0.521 z m 4.375,-4.516 -1.73,3.086 -2.207,1.015 z m 0.484,-0.514 1.161,-2.145 -1.241,2.943 z m 2.454,-6.61 0.438,-0.606 -0.7,2.318 z m 0.422,-4.572 -0.006,-0.045 0.044,-0.574 0.044,1.487 z m -0.117,-0.845 -0.438,-3.178 0.543,1.8 z m -1.3,-4.956 -0.8,-1.815 1.12,2.115 z m -2.414,-3.748 -1.6,-2.371 2.04,2.15 z M 49.567,24.2 49.674,24.123 50.9,25 Z m -0.162,-0.093 -0.831,-0.429 0.924,0.363 z m -7.016,-1.817 1.558,-0.32 2.344,0.834 z M 41.881,22.222 39.76,21.7 l 3.556,0.226 z m -4.018,0.039 -1.654,-0.149 2.315,-0.418 z m -5.837,1.478 0.946,-0.709 1.526,-0.47 z m -0.777,0.37 -0.821,0.408 1.262,-0.738 z m -3.444,2.362 -0.974,0.93 1.113,-1.242 z m -4.562,6.563 -0.433,0.16 1.683,-2.733 z m -0.564,0.389 0.467,-0.173 -1.181,2.683 z m -1.163,6.963 0.024,1.493 -0.086,0.272 z m 0.081,1.875 0.426,2.745 -0.587,-2.24 z m 2.223,5.678 0.547,2.45 -1.747,-3.437 z m 1.755,3.5 0.38,1.278 -1.131,-1.525 z m 8.484,6.577 0.158,0.253 -1.66,-0.722 z m 0.426,0.36 -0.2,-0.31 3.611,0.711 z m 8.846,0.3 -0.38,0.43 -1.982,-0.055 z m 0.263,-0.041 2.363,-0.367 -2.714,0.764 z m 5.46,-2.041 1.386,-0.428 -2.44,1.347 z m 2.22,-0.919 -0.109,-0.7 2.025,-0.931 z m 4.386,-5.258 -0.095,0.945 -1.332,1.589 z m 2.193,-4.03 0.342,-0.165 -1.567,3.078 z m 0.455,-0.408 -0.384,0.186 0.772,-2.54 z"
           fill="url(#a)"
           id="path380"
           style="fill:url(#a)" />
        <path
           d="M 59.074,42.381 V 42.373 L 58.9,36.639 v -0.02 L 58.038,33.758 V 33.752 L 55.572,29.098 52.73,26.094 H 52.724 L 49.73,23.957 h -0.012 l -2.6,-1.02 H 47.1 l -3.12,-1.11 H 43.959 L 38.822,21.5 H 38.8 l -3.24,0.585 h -0.012 l -2.641,0.812 H 32.89 l -4.69,2.728 -2.93,3.269 -2.7,4.389 v 0.011 l -1.064,3.736 v 0.014 l -0.2,5.669 v 0.027 l 1.013,3.862 v 0.013 l 2.235,4.4 v 0.007 L 26.1,53.2 v 0.005 l 2.18,2 h 0.006 l 2.723,1.842 h 0.006 l 3.358,1.46 h 0.021 l 5.619,0.659 h 0.008 l 2.934,0.082 h 0.023 l 4.342,-1.224 h 0.015 l 3.88,-2.13 0.007,-0.005 h 0.005 l 2.5,-2.13 1.936,-2.311 0.007,-0.01 2.738,-5.36 v -0.021 l 0.6,-3.665 v -0.009 z m -30.667,12.706 -0.565,-0.518 1.27,0.995 z m 8.242,2.153 -1.985,-0.928 4.7,0.423 z m 0.723,-16.9 -5.21,0.548 3.213,-5.4 z m -1.818,-4.863 6.366,3.189 -4.379,1.634 z m 1.866,5.028 0.606,4.8 -5.8,-4.257 z m 0.53,4.958 -6.3,1.982 0.423,-6.3 z m -0.35,-4.878 4.881,3.241 -4.276,1.552 z m 0.078,-0.152 4.38,-1.638 0.507,4.884 z m 6.729,-5.641 4.059,-1.916 -0.458,4.559 z m 3.462,2.751 -5.58,1.02 1.982,-3.663 z M 42.13,38.5 38.5,31.825 l 5.631,2.986 z m -0.2,-0.019 -6.408,-3.21 2.754,-3.5 z m -9.895,2.292 -0.817,-3.118 3.943,-2.134 z m -0.54,6.518 -3.116,-5.111 3.53,-1.073 z m 6.359,-1.619 -3.168,3.384 -2.9,-1.474 z m 4.691,-1.687 -1.13,4.07 -3.115,-2.532 z m -0.306,-5.116 4.71,3.715 -4.2,1.157 z m 0.094,-0.142 5.641,-1.03 -0.9,4.771 z m 5.845,-1.255 0.452,-4.509 2.606,3.54 z m 3.115,-0.81 0.144,5.163 -3.216,-4.189 z m -6.959,-2.021 0.108,-3.832 3.931,1.925 z m -0.17,0 -5.61,-2.976 5.719,-0.888 z m -8.736,0.477 -1.051,-3.826 3.751,0.4 z m -0.137,0.143 -3.981,2.151 2.928,-5.981 z m -3.391,5.672 -3.455,1.05 2.641,-4.161 z m -0.625,6.323 -4.316,-3.056 1.287,-1.911 z m 0.348,0.434 2.9,1.474 -3.566,1.97 z m 6.521,-2.08 3.114,2.536 -6.328,0.9 z m 4.57,-1.6 4.6,4.444 -5.739,-0.329 z m 0.122,-0.118 4.218,-1.16 0.379,5.606 z m 5.292,-6.1 3.243,4.225 -4.134,0.5 z m 3.335,-1.1 2.737,1.551 -2.6,3.589 z m 0.029,-0.178 1.7,-2.791 1.008,4.324 z m -0.125,-0.122 -2.608,-3.542 4.327,0.715 z m -6.857,-5.742 3.063,-2.773 0.879,4.705 z m -6.062,0.854 1.944,-3.449 3.744,2.566 z m -4.058,-0.384 2.2,-4.48 1.574,4.88 z m -3.28,6.315 -2.67,-4.458 5.659,-1.65 z m -2.826,4.483 -1.292,-5.195 3.99,0.945 z m -1.423,2.122 -1.184,-2.94 2.445,1.07 z m 4.605,3.56 -0.666,3.453 -3.7,-6.544 z m 3.185,1.685 1.013,3.422 -4.612,-1.434 z m 6.7,-0.983 -1.005,4.448 -5.409,-3.538 z m 5.974,0.321 -2.6,2.355 L 41.7,48.3 Z m -0.094,-5.781 4,4.046 -3.627,1.538 z m 0.082,-0.158 4.127,-0.5 -0.14,4.534 z m 6.98,-4.279 1.648,5.551 -4.284,-1.906 z m -0.935,-4.692 2.689,2.039 -1.681,2.266 z m -4.628,-1.037 2.5,-2.859 1.843,3.576 z m -0.113,-0.129 -0.873,-4.673 3.366,1.817 z m -4.265,-1.98 -3.728,-2.554 6.776,-0.206 z m -6.043,0.84 -1.563,-4.846 3.495,1.417 z M 34.245,31.029 32.436,28.575 36.423,26.6 Z m -0.125,0.116 -5.544,1.616 3.724,-4.083 z m -3.179,6.339 -3.95,-0.936 1.336,-3.429 z m -2.816,4.5 -2.5,-1.095 1.243,-3.967 z m -1.394,2.187 -2.151,0.787 0.959,-3.75 z m 3.869,6.878 -4.732,-2.933 1,-3.674 z m 4.819,1.76 -4.477,0.71 -0.019,-2.108 z m -0.57,-3.451 5.264,3.442 -4.259,-0.048 z m 6.663,-1 3.055,2.706 -4.046,1.68 z m 5.988,0.342 1.615,4.476 -4.236,-2.1 z m 0.144,-0.1 3.6,-1.528 -1.986,6.015 z m 3.97,-6.384 4.283,1.906 -4.419,2.646 z m 2.867,-3.786 2.8,1.993 -1.2,3.413 z m -0.031,-0.231 1.683,-2.268 1.109,4.256 z m -1.124,-4.724 0.774,-2.425 1.861,4.428 z m -0.117,-0.189 -1.786,-3.456 2.564,1.025 z m -5.277,-5.5 3.729,-0.244 -0.47,2 z m -7.383,0.065 2.625,-3.257 4.208,3.049 z m -0.155,-0.078 -1.352,-3.541 3.95,0.318 z m -0.176,0.016 -3.453,-1.4 2.117,-2.1 z m -7.758,0.593 1.485,-4.284 2.521,2.3 z m -3.983,4.247 1.087,-4.451 2.581,0.429 z m -1.614,3.8 -1.394,-2.189 2.694,-1.15 z m -0.074,0.2 -1.192,3.8 -0.16,-5.926 z m -1.373,4.4 -0.972,3.8 -1.525,-3.8 z m -2.536,-0.166 0.081,-3.729 2.409,3.726 z m 3.842,3.5 -0.971,3.537 -1.18,-2.757 z m 3.876,6.888 -2.933,0.415 -1.676,-3.272 z m 0.16,0.148 0.019,2.078 -2.9,-1.669 z m 4.891,1.552 -1.489,3.102 -3.094,-2.382 z m 0.174,0.031 3.918,3.618 -5.421,-0.488 z m 0.192,-0.053 4.3,0.049 -0.392,3.557 z m 8.635,-1.7 0.164,4.018 L 40.6,52.9 Z m 0.171,0.015 4.25,2.11 -4.086,1.91 z m 6.592,-4.118 2.11,3.3 -4.1,2.724 z m 0.147,-0.086 4.062,0.6 -1.983,2.65 z m 0.075,-0.16 4.346,-2.6 -0.283,3.2 z m 5.74,-6.2 0.767,2.685 -1.925,0.622 z m -1.026,-4.58 2.2,2.772 -1.13,1.334 z m -2.06,-5.049 2.859,2.094 -0.983,2.367 z m -2.946,-1.439 0.461,-1.965 2.058,2.972 z m -3.643,-1.986 -0.5,-3 4.3,2.754 z m -0.189,-0.1 -4.1,-2.969 3.6,-0.023 z m -8.335,-3.458 2.675,-1.642 1.149,1.95 z m -2.569,2.232 -2.477,-2.26 4.581,0.172 z m -4.357,2.149 -2.572,-0.428 4.031,-3.78 z m -3.99,4.327 -2.632,-2.137 3.735,-2.378 z m -0.112,0.128 -2.719,1.16 0.132,-3.261 z m -2.72,7.732 -2.443,-3.779 2.274,-2.452 z m -1.059,4.464 -0.463,2.312 -0.915,-5.741 z m 0.118,0.276 1.145,2.673 L 24,47.821 Z m 2.97,6.259 -1.726,-0.335 0.11,-2.822 z m 3.261,2 -1.226,1.179 -1.647,-2.831 z M 30.864,53.729 33.809,56 29.64,54.91 Z m 9.608,-0.706 4.2,2.332 -4.6,1.235 z m 8.693,0.459 -0.23,2.933 -3.791,-1.053 z M 53.383,50.707 51.049,54.8 49.4,53.354 Z m 2.3,-2.89 0.012,2.14 -1.867,0.357 z m 0.468,-3.645 1.9,-0.614 -2.164,3.642 z m 1.317,-3.764 1.078,-1.271 -0.346,3.813 z m -1.209,-4.686 0.968,-2.331 1.254,5.129 z m -2.059,-4.94 0.68,-1.187 2.049,3.186 z m -0.118,-0.135 -2.012,-2.9 2.692,1.716 z m -6.749,-6.139 2.036,-0.217 2.06,2.841 z m -4.135,-0.12 -1.121,-1.905 4.584,1.884 z m -4.262,-0.374 -0.9,-1.582 3.538,-0.036 z m -0.18,0.027 -4.456,-0.167 3.551,-1.419 z m -9,3.676 1.6,-3.455 2.314,-0.211 z m -0.287,0.216 -1.458,-1.4 3.078,-2.106 z m -0.109,0.13 -3.627,2.309 2.167,-3.715 z m -4.1,5.993 -1.82,-0.979 1.95,-2.211 z m -0.057,0.161 -2.212,2.383 0.384,-3.365 z M 22.7,40.9 l -0.935,0.764 1.007,-4.055 z m 0.023,0.2 0.954,5.986 -1.955,-5.166 z m 2.954,7.129 -0.109,2.813 L 24.044,48 Z m 1.877,3.6 1.556,2.671 -3.194,-2.984 z m 6.546,4.42 -0.067,1.545 -4.072,-2.627 z m 0.167,0.066 2.114,0.988 -2.18,0.533 z m 5.629,0.492 0.066,2.167 -3.071,-1.607 z m 4.855,-1.3 -1.246,2.933 -3.294,-1.713 z m 0.2,-0.026 3.789,1.052 -5.032,1.877 z m 4.384,-1.965 1.605,1.4 -1.829,1.424 z m 4.356,-3.005 1.85,-0.354 -4.056,4.216 z m 2.179,-0.818 -0.013,-2.087 1.707,-1.043 z m 0.15,-2.385 2.07,-3.478 -0.381,2.449 z m 2.642,-7.52 0.242,2.56 -0.548,0.757 z m -1.262,-6.411 0.473,0.444 0.474,3.43 z m -2.4,-3.912 0.445,-0.224 1.288,2.919 z m -3.117,-2.044 0.782,-1.119 1.914,2.839 z m -0.122,-0.122 -2.038,-2.812 2.822,1.691 z m -4.591,-2.944 -0.013,-1.222 1.964,1.014 z M 47,24.322 l -4.489,-1.844 4.476,0.589 z m -8.879,-2.061 0.715,-0.613 2.369,0.583 z m -3.9,1.464 1.389,-1.5 1.922,0.173 z m -0.359,0.138 -2.1,0.191 3.455,-1.646 z m -5.786,2.418 0.232,-0.521 1.931,-0.959 z M 25.541,30.363 25.4,29 27.5,27 Z m -0.146,0.24 -1.742,1.975 1.605,-3.3 z m -2.595,6.172 -1.112,0.207 1.469,-3.335 z m -0.037,0.18 -1.063,4.285 -0.068,-4.075 z m 0.937,10.669 -1.264,-1.04 -0.606,-3.9 z m 1.772,3.6 -0.807,-0.265 -0.54,-2.419 z m 3.451,3.328 -2.678,-1.452 -0.431,-1.448 z m 0.49,0.46 1.161,1.48 -3.55,-2.781 z m 0.434,0.279 3.693,2.383 -2.417,-0.756 z m 6.775,2.122 2.87,1.5 -4.989,-0.983 z m 3.445,-0.571 3.212,1.671 -3.147,0.5 z m 8.528,-0.078 -1.3,1.126 -2.935,0.455 z m 2.41,-1.686 0.109,0.7 -1.686,0.521 z m 4.375,-4.516 -1.73,3.086 -2.207,1.015 z m 0.484,-0.514 1.161,-2.145 -1.241,2.943 z m 2.454,-6.61 0.438,-0.606 -0.7,2.318 z m 0.422,-4.572 -0.006,-0.045 0.044,-0.574 0.044,1.487 z m -0.117,-0.845 -0.438,-3.178 0.543,1.8 z m -1.3,-4.956 -0.8,-1.815 1.12,2.115 z m -2.414,-3.748 -1.6,-2.371 2.04,2.15 z M 49.567,24.2 49.674,24.123 50.9,25 Z m -0.162,-0.093 -0.831,-0.429 0.924,0.363 z m -7.016,-1.817 1.558,-0.32 2.344,0.834 z M 41.881,22.222 39.76,21.7 l 3.556,0.226 z m -4.018,0.039 -1.654,-0.149 2.315,-0.418 z m -5.837,1.478 0.946,-0.709 1.526,-0.47 z m -0.777,0.37 -0.821,0.408 1.262,-0.738 z m -3.444,2.362 -0.974,0.93 1.113,-1.242 z m -4.562,6.563 -0.433,0.16 1.683,-2.733 z m -0.564,0.389 0.467,-0.173 -1.181,2.683 z m -1.163,6.963 0.024,1.493 -0.086,0.272 z m 0.081,1.875 0.426,2.745 -0.587,-2.24 z m 2.223,5.678 0.547,2.45 -1.747,-3.437 z m 1.755,3.5 0.38,1.278 -1.131,-1.525 z m 8.484,6.577 0.158,0.253 -1.66,-0.722 z m 0.426,0.36 -0.2,-0.31 3.611,0.711 z m 8.846,0.3 -0.38,0.43 -1.982,-0.055 z m 0.263,-0.041 2.363,-0.367 -2.714,0.764 z m 5.46,-2.041 1.386,-0.428 -2.44,1.347 z m 2.22,-0.919 -0.109,-0.7 2.025,-0.931 z m 4.386,-5.258 -0.095,0.945 -1.332,1.589 z m 2.193,-4.03 0.342,-0.165 -1.567,3.078 z m 0.455,-0.408 -0.384,0.186 0.772,-2.54 z"
           fill="url(#b)"
           id="path382"
           style="fill:url(#b)" />
        <path
           d="m 75.959,26.832 c -1.686,-4.052 -5.1,-8.427 -7.784,-9.809 A 40.165,40.165 0 0 1 72.1,28.786 c 0,-0.009 0,0.008 0.006,0.037 l 0.007,0.041 A 35.053,35.053 0 0 1 70.905,55.021 C 66.459,64.553 55.694,74.321 38.844,73.846 20.642,73.331 4.605,59.837 1.611,42.164 c -0.545,-2.787 0,-4.2 0.274,-6.465 a 28.874,28.874 0 0 0 -0.628,5.347 v 0.2 A 38.808,38.808 0 0 0 78.3,47.8 c 0.065,-0.5 0.118,-0.995 0.176,-1.495 A 39.8,39.8 0 0 0 75.959,26.832 Z"
           fill="url(#c)"
           id="path384"
           style="fill:url(#c)" />
        <path
           d="m 75.959,26.832 c -1.686,-4.052 -5.1,-8.427 -7.784,-9.809 A 40.165,40.165 0 0 1 72.1,28.786 c 0,-0.009 0,0.008 0.006,0.037 l 0.007,0.041 A 35.053,35.053 0 0 1 70.905,55.021 C 66.459,64.553 55.694,74.321 38.844,73.846 20.642,73.331 4.605,59.837 1.611,42.164 c -0.545,-2.787 0,-4.2 0.274,-6.465 a 28.874,28.874 0 0 0 -0.628,5.347 v 0.2 A 38.808,38.808 0 0 0 78.3,47.8 c 0.065,-0.5 0.118,-0.995 0.176,-1.495 A 39.8,39.8 0 0 0 75.959,26.832 Z"
           fill="url(#d)"
           id="path386"
           style="fill:url(#d)" />
        <path
           d="m 1.611,42.164 c 2.994,17.673 19.031,31.167 37.237,31.682 16.85,0.476 27.615,-9.293 32.061,-18.825 a 35.053,35.053 0 0 0 1.208,-26.157 v -0.037 c 0,-0.029 -0.006,-0.046 -0.006,-0.037 l 0.008,0.065 c 1.376,8.977 -3.195,17.674 -10.341,23.555 l -0.022,0.05 C 47.824,63.782 34.5,59.289 31.8,57.451 A 24.76,24.76 0 0 1 31.235,57.169 C 23.117,53.294 19.763,45.905 20.482,39.569 a 9.964,9.964 0 0 1 -9.192,-5.776 14.651,14.651 0 0 1 14.266,-0.571 19.337,19.337 0 0 0 14.568,0.572 c -0.014,-0.315 -6.767,-3 -9.4,-5.59 -1.407,-1.385 -2.075,-2.052 -2.666,-2.553 a 11.762,11.762 0 0 0 -1,-0.758 c -0.231,-0.157 -0.49,-0.327 -0.8,-0.531 -2.83,-1.838 -8.458,-1.736 -8.644,-1.732 h -0.018 c -1.539,-1.947 -1.43,-8.367 -1.342,-9.707 a 6.954,6.954 0 0 0 -1.3,0.686 28.275,28.275 0 0 0 -3.792,3.245 A 34,34 0 0 0 7.535,21.2 V 21.206 21.2 A 32.689,32.689 0 0 0 2.328,32.938 C 2.31,33.022 0.932,39.042 1.611,42.164 Z"
           fill="url(#e)"
           id="path388"
           style="fill:url(#e)" />
        <path
           d="m 53.742,26.87 a 21.061,21.061 0 0 1 3.6,4.7 7.876,7.876 0 0 1 0.583,0.476 c 8.8,8.1 4.187,19.549 3.844,20.365 C 68.915,46.53 73.486,37.833 72.11,28.856 67.722,17.931 60.283,13.526 54.21,3.935 a 47.894,47.894 0 0 1 -0.914,-1.485 11.747,11.747 0 0 1 -0.427,-0.8 7.032,7.032 0 0 1 -0.58,-1.539 0.1,0.1 0 0 0 -0.088,-0.1 0.129,0.129 0 0 0 -0.073,0 l -0.019,0.01 -0.029,0.012 c -1.5,0.715 -10.399,14.79 1.662,26.837 z"
           fill="url(#f)"
           id="path390"
           style="fill:url(#f)" />
        <path
           d="m 38.816,21.556 5.137,0.327 3.12,1.11 2.6,1.02 2.995,2.139 2.821,2.974 0.98,1.849 a 23.46,23.46 0 0 1 0.634,0.413 c 0.085,0.059 0.162,0.118 0.241,0.177 a 21.061,21.061 0 0 0 -3.6,-4.695 C 41.681,14.823 50.58,0.748 52.08,0.033 L 52.1,0.011 C 42.353,5.711 39.046,16.262 38.743,21.54 v 0.03 z"
           fill="url(#g)"
           id="path392"
           style="fill:url(#g)" />
        <path
           d="m 26.25,24.362 a 22.816,22.816 0 0 1 0.8,0.531 17.927,17.927 0 0 1 -0.109,-9.472 28.736,28.736 0 0 0 -9.34,7.209 c 0.191,-0.004 5.819,-0.106 8.649,1.732 z"
           fill="url(#h)"
           id="path394"
           style="fill:url(#h)" />
        <path
           d="m 22.635,44.75 c 0,0 1.791,-6.667 12.825,-6.667 1.193,0 4.6,-3.325 4.666,-4.289 a 19.337,19.337 0 0 1 -14.568,-0.572 14.651,14.651 0 0 0 -14.266,0.571 9.964,9.964 0 0 0 9.192,5.776 c -0.719,6.336 2.635,13.725 10.753,17.6 0.182,0.087 0.352,0.182 0.538,0.265 -4.738,-2.447 -8.651,-7.07 -9.14,-12.684 z"
           fill="url(#i)"
           id="path396"
           style="fill:url(#i)" />
        <path
           d="m 57.927,32.041 a 7.876,7.876 0 0 0 -0.583,-0.476 c -0.079,-0.059 -0.156,-0.118 -0.241,-0.177 a 13.406,13.406 0 0 0 -9.356,-2.269 c 13.957,6.97 10.21,30.971 -9.129,30.065 a 17.241,17.241 0 0 1 -5.049,-0.973 22.74,22.74 0 0 1 -1.14,-0.465 c -0.218,-0.1 -0.437,-0.2 -0.654,-0.312 l 0.027,0.017 c 2.7,1.838 16.022,6.331 29.947,-4.995 l 0.022,-0.05 C 62.114,51.59 66.723,40.138 57.927,32.041 Z"
           fill="url(#j)"
           id="path398"
           style="fill:url(#j)" />
        <path
           d="m 75.956,26.831 c -1.686,-4.053 -5.1,-8.427 -7.784,-9.81 A 40.19,40.19 0 0 1 72.1,28.785 l 0.008,0.064 C 67.721,17.925 60.281,13.52 54.206,3.928 a 45.312,45.312 0 0 1 -0.914,-1.484 12.796,12.796 0 0 1 -0.428,-0.8 7.053,7.053 0 0 1 -0.578,-1.535 0.1,0.1 0 0 0 -0.088,-0.1 0.138,0.138 0 0 0 -0.073,0 c -0.006,0 -0.014,0.009 -0.02,0.011 -0.006,0.002 -0.019,0.011 -0.028,0.015 l 0.016,-0.022 c -9.747,5.7 -13.052,16.283 -13.356,21.561 l 0.079,-0.014 5.137,0.327 2.891,1.028 2.829,1.1 2.995,2.139 2.818,2.972 c 0,0 0.97,1.82 0.983,1.851 A 13.279,13.279 0 0 0 47.744,29.119 C 61.7,36.089 57.954,60.09 38.615,59.184 A 17.272,17.272 0 0 1 33.566,58.212 Q 33,58 32.426,57.744 a 14.44,14.44 0 0 1 -0.654,-0.312 l 0.027,0.017 a 22.816,22.816 0 0 1 -0.565,-0.281 c 0.181,0.086 0.352,0.181 0.538,0.264 -4.738,-2.446 -8.651,-7.07 -9.14,-12.684 0,0 1.791,-6.667 12.825,-6.667 1.193,0 4.6,-3.325 4.666,-4.289 -0.014,-0.315 -6.768,-3 -9.4,-5.59 -1.407,-1.384 -2.075,-2.052 -2.667,-2.553 a 11.4,11.4 0 0 0 -1.005,-0.757 17.943,17.943 0 0 1 -0.109,-9.473 28.745,28.745 0 0 0 -9.34,7.21 h -0.018 c -1.538,-1.946 -1.429,-8.366 -1.342,-9.707 a 7.042,7.042 0 0 0 -1.3,0.686 28.222,28.222 0 0 0 -3.792,3.246 33.908,33.908 0 0 0 -3.624,4.34 32.711,32.711 0 0 0 -5.201,11.743 c -0.019,0.084 -0.034,0.171 -0.052,0.255 -0.073,0.342 -0.4,2.073 -0.448,2.445 a 45.091,45.091 0 0 0 -0.572,5.408 v 0.2 A 38.807,38.807 0 0 0 78.3,47.8 c 0.066,-0.5 0.119,-1 0.177,-1.5 A 39.807,39.807 0 0 0 75.956,26.831 Z m -3.849,1.99 0.006,0.042 z"
           fill="url(#k)"
           id="path400"
           style="fill:url(#linearGradient1617)" />
        <path
           d="m 40.126,33.794 c 0,0 -0.164,0.068 -0.468,0.172 -0.758,1.281 -3.453,3.727 -4.483,3.722 -11.034,-0.048 -12.854,6.546 -12.854,6.546 a 14.093,14.093 0 0 0 2.162,6.333 14.194,14.194 0 0 1 -1.848,-5.817 c 0,0 1.791,-6.667 12.825,-6.667 1.193,0 4.6,-3.325 4.666,-4.289 z"
           fill="url(#l)"
           id="path402"
           style="fill:url(#l)" />
        <path
           d="m 72.117,28.864 v -0.037 c 0,-0.029 -0.006,-0.046 0,-0.037 0.006,0.009 0,0.022 0.007,0.065 a 38.737,38.737 0 0 0 -0.834,-1.92 c -0.1,-0.212 -0.2,-0.41 -0.305,-0.617 -0.195,-0.4 -0.388,-0.8 -0.59,-1.176 -0.125,-0.235 -0.256,-0.458 -0.384,-0.686 -0.188,-0.335 -0.374,-0.672 -0.567,-1 -0.142,-0.236 -0.288,-0.462 -0.432,-0.692 -0.189,-0.3 -0.377,-0.6 -0.57,-0.892 -0.153,-0.231 -0.31,-0.454 -0.465,-0.679 -0.193,-0.278 -0.385,-0.556 -0.582,-0.827 -0.162,-0.224 -0.327,-0.443 -0.492,-0.662 -0.2,-0.261 -0.393,-0.522 -0.592,-0.778 a 67.045,67.045 0 0 0 -0.516,-0.651 c -0.2,-0.249 -0.4,-0.5 -0.605,-0.745 q -0.265,-0.321 -0.533,-0.639 c -0.1,-0.115 -0.193,-0.233 -0.291,-0.348 l 0.124,0.152 C 61.116,12.729 57.467,9.074 54.209,3.93 A 47.165,47.165 0 0 1 53.295,2.445 11.747,11.747 0 0 1 52.868,1.645 7.949,7.949 0 0 1 52.334,0.283 C 52.327,0.258 52.315,0.22 52.311,0.2 a 4.52,4.52 0 0 1 -0.022,-0.09 0.1,0.1 0 0 0 -0.088,-0.1 0.129,0.129 0 0 0 -0.073,0 L 52.109,0.021 A 0.27,0.27 0 0 0 52.08,0.036 1.138,1.138 0 0 0 51.845,0.209 1.26,1.26 0 0 0 51.789,0.259 3.722,3.722 0 0 0 51.482,0.584 L 51.471,0.595 C 49.15,3.323 43.213,15.2 52.78,25.854 43.823,15.314 49.468,3.924 51.921,0.94 a 8.61,8.61 0 0 0 0.479,1.172 11.488,11.488 0 0 0 0.427,0.8 c 0.3,0.513 0.607,1 0.914,1.484 6.076,9.592 13.516,14 17.9,24.921 0,-0.042 -0.007,-0.058 -0.007,-0.064 0,-0.006 0,0.008 0.005,0.037 l 0.006,0.037 a 35.054,35.054 0 0 1 -1.204,26.163 32.153,32.153 0 0 1 -6.164,8.838 32.214,32.214 0 0 0 6.632,-9.307 35.058,35.058 0 0 0 1.208,-26.157 z"
           fill="url(#n)"
           id="path404"
           style="fill:url(#n)" />
        <path
           d="M 52.08,0.033 52.1,0.011 C 43.32,5.148 39.766,14.217 38.926,19.823 A 28.672,28.672 0 0 1 50.647,1.735 5.436,5.436 0 0 1 52.08,0.033 Z"
           fill="url(#o)"
           id="path406"
           style="fill:url(#o)" />
        <path
           d="m 61.749,52.456 0.022,-0.05 C 62.114,51.59 66.723,40.138 57.927,32.041 a 7.876,7.876 0 0 0 -0.583,-0.476 c -0.079,-0.059 -0.156,-0.118 -0.241,-0.177 a 13.543,13.543 0 0 0 -9,-2.325 H 48.1 a 8.612,8.612 0 0 0 -0.353,0.055 C 61.546,36.01 58.039,59.55 39.266,59.2 l 0.153,0.009 C 58.45,59.957 62.2,36.618 48.977,29.3 a 14.05,14.05 0 0 1 7.349,2.122 8.183,8.183 0 0 1 0.247,0.169 7.4,7.4 0 0 1 0.6,0.452 c 9.107,7.747 4.95,19.37 4.638,20.2 l -0.02,0.052"
           fill="url(#p)"
           id="path408"
           style="fill:url(#p)" />
        <path
           d="m 25.662,33.61 a 19.385,19.385 0 0 0 14.029,0.345 19.388,19.388 0 0 1 -14.133,-0.733 14.743,14.743 0 0 0 -14.081,0.45 l -0.051,0.033 h -0.005 l -0.042,0.028 -0.032,0.022 -0.02,0.014 h -0.006 l -0.014,0.01 h -0.005 l 0.018,0.043 v 0.006 l 0.022,0.05 v 0.01 l 0.033,0.072 v 0.006 a 8,8 0 0 0 0.255,0.487 9.925,9.925 0 0 0 8.852,5.1 c -0.7,6.146 2.438,13.282 10.036,17.242 C 23.256,52.61 20.205,45.015 21.053,38.974 15.446,38.826 12.939,35.465 12.222,34.04 a 15.333,15.333 0 0 1 13.44,-0.43 z"
           fill="url(#r)"
           id="path410"
           style="fill:url(#r)" />
        <path
           d="m 27.049,24.872 -0.19,-0.111 0.2,0.132 z m -0.04,-0.142 a 17.957,17.957 0 0 1 -0.063,-9.309 28.285,28.285 0 0 0 -8.98,6.811 29.292,29.292 0 0 1 8.189,-5.784 18.179,18.179 0 0 0 0.854,8.282 z"
           fill="url(#s)"
           id="path412"
           style="fill:url(#s)" />
        <path
           d="M 2.547,46.226 2.516,46.115 a 35.886,35.886 0 0 1 -0.9,-3.951 16.765,16.765 0 0 1 0,-5 32.988,32.988 0 0 0 -0.355,3.88 v 0.2 A 38.774,38.774 0 0 0 27.301,77.852 39.224,39.224 0 0 1 2.547,46.226 Z"
           fill="url(#t)"
           id="path414"
           style="fill:url(#t)" />
        <path
           d="m 2.236,42.32 c -0.679,-3.122 0.7,-9.141 0.717,-9.226 A 32.689,32.689 0 0 1 8.16,21.352 v 0.006 -0.006 a 34,34 0 0 1 3.623,-4.341 28.275,28.275 0 0 1 3.792,-3.245 3.338,3.338 0 0 1 0.164,-0.1 c -0.014,2.948 0.154,7.923 1.519,9.554 h 0.018 c 0.187,-0.01 5.835,-0.259 8.724,1.5 0.321,0.2 0.585,0.359 0.821,0.51 a 11.927,11.927 0 0 1 1.029,0.731 c 0.606,0.486 1.294,1.135 2.743,2.482 2.1,1.951 6.669,3.891 8.644,4.815 -1.924,-0.969 -6.464,-3.04 -8.511,-5.055 -1.407,-1.385 -2.075,-2.052 -2.666,-2.553 a 11.762,11.762 0 0 0 -1,-0.758 c -0.231,-0.157 -0.49,-0.327 -0.8,-0.531 -2.83,-1.838 -8.458,-1.736 -8.644,-1.732 h -0.018 c -1.406,-1.779 -1.436,-7.293 -1.364,-9.252 0,-0.076 0,-0.145 0.008,-0.21 V 13.04 c 0,-0.042 0,-0.083 0.007,-0.118 0,0 -0.007,-0.007 -0.016,-0.007 h -0.035 l -0.022,0.008 -0.032,0.012 -0.031,0.013 -0.037,0.017 -0.04,0.019 -0.04,0.02 -0.049,0.024 -0.039,0.021 -0.058,0.03 -0.033,0.018 a 19.292,19.292 0 0 0 -0.864,0.5 28.275,28.275 0 0 0 -3.792,3.245 A 34,34 0 0 0 7.535,21.2 V 21.206 21.2 A 32.689,32.689 0 0 0 2.328,32.938 c -0.018,0.084 -1.4,6.1 -0.717,9.226 C 4.159,57.2 16.154,69.215 30.892,72.778 16.441,69.031 4.748,57.147 2.236,42.32 Z"
           fill="url(#u)"
           id="path416"
           style="fill:url(#u)" />
        <path
           d="m 75.959,26.832 a 23.765,23.765 0 0 0 -6.81,-9.2 L 69.08,17.583 a 13.613,13.613 0 0 0 -0.23,-0.158 q -0.043,-0.03 -0.087,-0.057 -0.11,-0.07 -0.216,-0.135 l -0.084,-0.05 a 7.863,7.863 0 0 0 -0.288,-0.159 35.137,35.137 0 0 1 0.306,0.615 33.589,33.589 0 0 1 0.186,0.383 39.735,39.735 0 0 1 3.433,10.764 l 0.008,0.065 c 1.376,8.977 -3.195,17.674 -10.341,23.555 l -0.022,0.05 c -8.883,7.225 -17.52,8.013 -23.312,7.159 5.771,1.078 14.874,0.623 24.25,-7 l 0.021,-0.05 C 69.85,46.684 74.422,37.987 73.046,29.01 l -0.008,-0.065 a 38.939,38.939 0 0 0 -2.829,-9.445 25.662,25.662 0 0 1 4.243,6.047 38.616,38.616 0 0 1 3.586,19 c -0.03,0.495 -0.055,0.989 -0.093,1.48 A 38.63,38.63 0 0 1 41.533,79.82 39.649,39.649 0 0 1 33.872,79.508 38.837,38.837 0 0 0 78.3,47.8 c 0.065,-0.5 0.118,-0.995 0.176,-1.495 A 39.8,39.8 0 0 0 75.959,26.832 Z m -3.842,2.032 v -0.037 z"
           fill="url(#v)"
           id="path418"
           style="fill:url(#v)" />
      </g>
    </g>
    <text
       xml:space="preserve"
       style="font-size:0.245905px;line-height:1.25;font-family:'Arial Rounded MT Bold';-inkscape-font-specification:'Arial Rounded MT Bold, ';fill:#ffffff;stroke-width:0.0151923"
       x="42.702511"
       y="25.270777"
       id="text1635"><tspan
         sodipodi:role="line"
         id="tspan1633"
         x="42.702511"
         y="25.270777"
         style="font-style:normal;font-variant:normal;font-weight:bold;font-stretch:normal;font-size:0.245905px;font-family:sans-serif;-inkscape-font-specification:'sans-serif Bold';fill:#ffffff;stroke-width:0.0151923">FIREFOX DEVELOPER EDITION</tspan></text>
  </g>
</svg>
