<?xml version="1.0" encoding="UTF-8" standalone="no"?>
<svg
   xmlns:dc="http://purl.org/dc/elements/1.1/"
   xmlns:cc="http://creativecommons.org/ns#"
   xmlns:rdf="http://www.w3.org/1999/02/22-rdf-syntax-ns#"
   xmlns:svg="http://www.w3.org/2000/svg"
   xmlns="http://www.w3.org/2000/svg"
   xmlns:sodipodi="http://sodipodi.sourceforge.net/DTD/sodipodi-0.dtd"
   xmlns:inkscape="http://www.inkscape.org/namespaces/inkscape"
   width="512px"
   height="512px"
   viewBox="0 -166.5 512 512"
   preserveAspectRatio="xMinYMin meet"
   version="1.1"
   id="svg14"
   sodipodi:docname="ionic-logo-svgrepo-com.svg"
   inkscape:export-filename="G:\nishanth\workspace of js and html\My github profile\icons\ionic-logo-svgrepo-com.png"
   inkscape:export-xdpi="96"
   inkscape:export-ydpi="96"
   inkscape:version="1.0.1 (3bc2e813f5, 2020-09-07)">
  <metadata
     id="metadata20">
    <rdf:RDF>
      <cc:Work
         rdf:about="">
        <dc:format>image/svg+xml</dc:format>
        <dc:type
           rdf:resource="http://purl.org/dc/dcmitype/StillImage" />
      </cc:Work>
    </rdf:RDF>
  </metadata>
  <defs
     id="defs18" />
  <sodipodi:namedview
     pagecolor="#ffffff"
     bordercolor="#666666"
     borderopacity="1"
     objecttolerance="10"
     gridtolerance="10"
     guidetolerance="10"
     inkscape:pageopacity="0"
     inkscape:pageshadow="2"
     inkscape:window-width="1366"
     inkscape:window-height="745"
     id="namedview16"
     showgrid="false"
     inkscape:zoom="3.6866792"
     inkscape:cx="242.08707"
     inkscape:cy="190.51073"
     inkscape:window-x="-8"
     inkscape:window-y="-8"
     inkscape:window-maximized="1"
     inkscape:current-layer="svg14" />
  <rect
     style="fill:#4e8ef7;fill-opacity:1;stroke-width:9.50423;stroke-linecap:round;paint-order:markers fill stroke"
     id="rect31"
     width="128.5"
     height="28"
     x="124.77354"
     y="9.2679291" />
  <g
     id="g42"
     transform="translate(-6.7532431)">
    <g
       id="g29"
       transform="matrix(0.10668824,0,0,0.10668824,145.00188,13.74371)"
       style="fill:#ffffff">
      <circle
         cx="89.373001"
         cy="89.271004"
         r="36.448002"
         id="circle8"
         style="fill:#ffffff" />
      <path
         d="m 163.755,27.424 c 0,-6.923 -5.614,-12.533 -12.535,-12.533 a 12.468,12.468 0 0 0 -8.203,3.072 C 128.07,6.691 109.49,0 89.372,0 40.148,0 0.102,40.047 0.102,89.272 c 0,49.223 40.047,89.271 89.271,89.271 49.224,0 89.27,-40.048 89.27,-89.271 0,-20.118 -6.69,-38.7 -17.961,-53.646 a 12.465,12.465 0 0 0 3.073,-8.202 z M 89.372,175.54 c -47.568,0 -86.269,-38.701 -86.269,-86.27 0,-47.567 38.701,-86.268 86.27,-86.268 19.34,0 37.213,6.399 51.618,17.19 a 12.467,12.467 0 0 0 -2.306,7.231 c 0,6.922 5.612,12.532 12.533,12.532 2.696,0 5.185,-0.858 7.23,-2.306 10.791,14.404 17.19,32.277 17.19,51.62 0.002,47.57 -38.697,86.27 -86.266,86.27 z"
         id="path10"
         style="fill:#ffffff" />
    </g>
    <text
       xml:space="preserve"
       style="font-size:13.3535px;line-height:1.25;font-family:'Arial Rounded MT Bold';-inkscape-font-specification:'Arial Rounded MT Bold, ';fill:#ffffff;stroke-width:1.33535"
       x="167.97162"
       y="28.122265"
       id="text35"><tspan
         sodipodi:role="line"
         id="tspan33"
         x="167.97162"
         y="28.122265"
         style="font-style:normal;font-variant:normal;font-weight:bold;font-stretch:normal;font-size:13.3535px;font-family:sans-serif;-inkscape-font-specification:'sans-serif Bold';fill:#ffffff;stroke-width:1.33535">IONICONS</tspan></text>
  </g>
</svg>
