<?xml version="1.0" encoding="UTF-8" standalone="no"?>
<svg
   xmlns:dc="http://purl.org/dc/elements/1.1/"
   xmlns:cc="http://creativecommons.org/ns#"
   xmlns:rdf="http://www.w3.org/1999/02/22-rdf-syntax-ns#"
   xmlns:svg="http://www.w3.org/2000/svg"
   xmlns="http://www.w3.org/2000/svg"
   xmlns:sodipodi="http://sodipodi.sourceforge.net/DTD/sodipodi-0.dtd"
   xmlns:inkscape="http://www.inkscape.org/namespaces/inkscape"
   width="2500"
   height="2500"
   viewBox="0 0 256 256"
   preserveAspectRatio="xMidYMid"
   version="1.1"
   id="svg4"
   sodipodi:docname="netlify.svg"
   inkscape:version="1.0.1 (3bc2e813f5, 2020-09-07)">
  <metadata
     id="metadata10">
    <rdf:RDF>
      <cc:Work
         rdf:about="">
        <dc:format>image/svg+xml</dc:format>
        <dc:type
           rdf:resource="http://purl.org/dc/dcmitype/StillImage" />
      </cc:Work>
    </rdf:RDF>
  </metadata>
  <defs
     id="defs8" />
  <sodipodi:namedview
     pagecolor="#ffffff"
     bordercolor="#666666"
     borderopacity="1"
     objecttolerance="10"
     gridtolerance="10"
     guidetolerance="10"
     inkscape:pageopacity="0"
     inkscape:pageshadow="2"
     inkscape:window-width="1366"
     inkscape:window-height="745"
     id="namedview6"
     showgrid="false"
     inkscape:zoom="3.0201276"
     inkscape:cx="1131.0638"
     inkscape:cy="1277.6478"
     inkscape:window-x="-8"
     inkscape:window-y="-8"
     inkscape:window-maximized="1"
     inkscape:current-layer="svg4" />
  <g
     id="g32"
     inkscape:export-xdpi="96"
     inkscape:export-ydpi="96">
    <rect
       style="fill:#25c7b7;fill-opacity:1;stroke-width:0.209195;stroke-linecap:round;paint-order:markers fill stroke"
       id="rect16"
       width="13.1584"
       height="2.8671999"
       x="102.5313"
       y="127.486" />
    <g
       id="g25"
       transform="translate(-1.0598421)">
      <path
         d="m 105.43778,128.59103 0.54617,0.11413 a 0.12727687,0.12727687 0 0 1 0.008,-0.0128 l -0.49721,-0.72532 -0.0299,0.03 -0.0846,0.52603 a 0.09967456,0.09967456 0 0 1 0.058,0.068 z m 0.19924,0.71397 c 0.0205,-0.0314 0.0558,-0.0522 0.096,-0.0522 0.006,0 0.0122,6.1e-4 0.0181,0.002 l 0.24909,-0.38972 -0.66547,0.28637 c 2e-4,0.003 8.2e-4,0.005 8.2e-4,0.008 0,0.005 -8.2e-4,0.0111 -0.002,0.0164 l 0.30312,0.12962 z m -0.0181,0.071 -0.32244,-0.13785 a 0.09957887,0.09957887 0 0 1 -0.0346,0.0175 l -0.0529,0.32951 0.20189,0.2019 0.22726,-0.3556 a 0.1132017,0.1132017 0 0 1 -0.0192,-0.0554 z m -0.67563,-0.0565 0.20235,0.20238 0.0439,-0.27322 a 0.10115341,0.10115341 0 0 1 -0.0295,-0.0225 z m 0.4848,-0.65655 a 0.09877854,0.09877854 0 0 1 -0.0791,0.0508 l -0.0581,0.36143 c 0.004,0.003 0.009,0.006 0.0127,0.0103 l 0.66929,-0.28804 c -0.002,-0.007 -0.003,-0.0141 -0.004,-0.0216 z m -0.53991,0.6014 0.23411,-0.10074 -0.57763,-0.24696 -0.002,0.002 z m 0.41836,-0.74247 0.0703,-0.43743 -0.40855,0.40855 0.29428,0.0614 a 0.09887424,0.09887424 0 0 1 0.0439,-0.0325 z m 0.79411,0.11246 c 0.0148,0 0.029,0.003 0.0422,0.007 l 0.13572,-0.21237 0.0524,0.0524 -0.12853,0.20113 a 0.13976012,0.13976012 0 0 1 0.009,0.0123 l 0.23286,-0.10026 0.0552,0.0552 -0.25489,0.10971 0.46081,0.0962 0.063,0.063 -0.02,0.02 -0.53138,-0.11092 a 0.13032157,0.13032157 0 0 1 -0.0232,0.0315 l 0.25791,0.3762 -0.0521,0.0521 -0.26946,-0.39306 a 0.1329487,0.1329487 0 0 1 -0.0295,0.004 c -0.0114,0 -0.0224,-0.002 -0.033,-0.004 l -0.25215,0.39452 a 0.1141847,0.1141847 0 0 1 0.032,0.0793 c 0,0.009 -8.9e-4,0.0178 -0.004,0.0262 l 0.31455,0.13449 -0.0552,0.0552 -0.29803,-0.12746 a 0.1141325,0.1141325 0 0 1 -0.11006,0.0197 l -0.23248,0.36384 0.19284,0.19285 1.11349,-1.11351 -1.11349,-1.11351 -0.10958,0.10958 0.50094,0.73081 a 0.13150464,0.13150464 0 0 1 0.0532,-0.0113 z m -0.88061,0.4253 0.0591,-0.36743 a 0.09881335,0.09881335 0 0 1 -0.0366,-0.0679 l -0.33554,-0.0701 -0.30726,0.30725 0.55459,0.23712 a 0.10010951,0.10010951 0 0 1 0.0656,-0.039 z"
         fill="#25c7b7"
         id="path2"
         style="fill:#ffffff;stroke-width:0.00869911" />
      <text
         xml:space="preserve"
         style="font-size:1.7912px;line-height:1.25;font-family:'Arial Rounded MT Bold';-inkscape-font-specification:'Arial Rounded MT Bold, ';fill:#ffffff;stroke-width:0.17912"
         x="107.24085"
         y="129.57074"
         id="text20"><tspan
           sodipodi:role="line"
           id="tspan18"
           x="107.24085"
           y="129.57074"
           style="font-style:normal;font-variant:normal;font-weight:bold;font-stretch:normal;font-size:1.7912px;font-family:sans-serif;-inkscape-font-specification:'sans-serif Bold';fill:#ffffff;stroke-width:0.17912">NETLIFY</tspan></text>
    </g>
  </g>
</svg>
