<?xml version="1.0" encoding="UTF-8" standalone="no"?>
<svg
   xmlns:dc="http://purl.org/dc/elements/1.1/"
   xmlns:cc="http://creativecommons.org/ns#"
   xmlns:rdf="http://www.w3.org/1999/02/22-rdf-syntax-ns#"
   xmlns:svg="http://www.w3.org/2000/svg"
   xmlns="http://www.w3.org/2000/svg"
   xmlns:sodipodi="http://sodipodi.sourceforge.net/DTD/sodipodi-0.dtd"
   xmlns:inkscape="http://www.inkscape.org/namespaces/inkscape"
   width="2500"
   height="2490"
   viewBox="0 0 256 255"
   preserveAspectRatio="xMinYMin meet"
   version="1.1"
   id="svg18"
   sodipodi:docname="python-5.svg"
   inkscape:version="1.0.1 (3bc2e813f5, 2020-09-07)">
  <metadata
     id="metadata22">
    <rdf:RDF>
      <cc:Work
         rdf:about="">
        <dc:format>image/svg+xml</dc:format>
        <dc:type
           rdf:resource="http://purl.org/dc/dcmitype/StillImage" />
      </cc:Work>
    </rdf:RDF>
  </metadata>
  <sodipodi:namedview
     pagecolor="#ffffff"
     bordercolor="#666666"
     borderopacity="1"
     objecttolerance="10"
     gridtolerance="10"
     guidetolerance="10"
     inkscape:pageopacity="0"
     inkscape:pageshadow="2"
     inkscape:window-width="1366"
     inkscape:window-height="745"
     id="namedview20"
     showgrid="false"
     inkscape:zoom="3.0322566"
     inkscape:cx="1184.952"
     inkscape:cy="1239.3428"
     inkscape:window-x="-8"
     inkscape:window-y="-8"
     inkscape:window-maximized="1"
     inkscape:current-layer="svg18" />
  <defs
     id="defs12">
    <linearGradient
       x1="24.714632"
       y1="22.897128"
       x2="151.13584"
       y2="148.33623"
       id="a"
       gradientTransform="scale(0.99888681,1.0011144)"
       gradientUnits="userSpaceOnUse">
      <stop
         stop-color="#387EB8"
         offset="0%"
         id="stop2" />
      <stop
         stop-color="#366994"
         offset="100%"
         id="stop4" />
    </linearGradient>
    <linearGradient
       x1="102.48345"
       y1="103.26573"
       x2="238.2592"
       y2="231.90517"
       id="b"
       gradientTransform="scale(0.99888668,1.0011146)"
       gradientUnits="userSpaceOnUse">
      <stop
         stop-color="#FFE052"
         offset="0%"
         id="stop7" />
      <stop
         stop-color="#FFC331"
         offset="100%"
         id="stop9" />
    </linearGradient>
  </defs>
  <g
     id="g52"
     inkscape:export-xdpi="96"
     inkscape:export-ydpi="96">
    <rect
       style="fill:#3771a2;fill-opacity:1;stroke-width:0.124863;stroke-linecap:round;paint-order:markers fill stroke"
       id="rect24"
       width="13.159638"
       height="2.8674698"
       x="111.39677"
       y="125.61787"
       inkscape:export-xdpi="96"
       inkscape:export-ydpi="96" />
    <g
       id="g28"
       transform="matrix(0.00856743,0,0,0.00856743,112.49479,125.96269)"
       style="fill:#ffffff">
      <path
         d="m 126.916,0.072 c -64.832,0 -60.784,28.115 -60.784,28.115 l 0.072,29.128 h 61.868 V 66.06 H 41.631 c 0,0 -41.486,-4.705 -41.486,60.71 0,65.417 36.21,63.097 36.21,63.097 h 21.61 v -30.356 c 0,0 -1.165,-36.21 35.632,-36.21 h 61.362 c 0,0 34.475,0.557 34.475,-33.319 V 33.97 c 0,0 5.236,-33.898 -62.518,-33.898 z M 92.802,19.66 a 11.12,11.12 0 0 1 11.13,11.13 11.12,11.12 0 0 1 -11.13,11.13 11.12,11.12 0 0 1 -11.13,-11.13 11.12,11.12 0 0 1 11.13,-11.13 z"
         fill="url(#a)"
         id="path14"
         style="fill:#ffffff" />
      <path
         d="m 128.757,254.126 c 64.832,0 60.784,-28.115 60.784,-28.115 l -0.072,-29.127 H 127.6 v -8.745 h 86.441 c 0,0 41.486,4.705 41.486,-60.712 0,-65.416 -36.21,-63.096 -36.21,-63.096 h -21.61 v 30.355 c 0,0 1.165,36.21 -35.632,36.21 h -61.362 c 0,0 -34.475,-0.557 -34.475,33.32 v 56.013 c 0,0 -5.235,33.897 62.518,33.897 z m 34.114,-19.586 a 11.12,11.12 0 0 1 -11.13,-11.13 11.12,11.12 0 0 1 11.13,-11.131 11.12,11.12 0 0 1 11.13,11.13 11.12,11.12 0 0 1 -11.13,11.13 z"
         fill="url(#b)"
         id="path16"
         style="fill:#ffffff" />
    </g>
    <text
       xml:space="preserve"
       style="font-size:1.81965px;line-height:1.25;font-family:'Arial Rounded MT Bold';-inkscape-font-specification:'Arial Rounded MT Bold, ';stroke-width:0.181965;fill:#ffffff;"
       x="115.0999"
       y="127.71309"
       id="text32"><tspan
         sodipodi:role="line"
         id="tspan30"
         x="115.0999"
         y="127.71309"
         style="font-style:normal;font-variant:normal;font-weight:bold;font-stretch:normal;font-size:1.81965px;font-family:sans-serif;-inkscape-font-specification:'sans-serif Bold';stroke-width:0.181965;fill:#ffffff;">PYTHON</tspan></text>
  </g>
</svg>
